<svg xmlns="http://www.w3.org/2000/svg" width="960" height="520" viewBox="0 0 960 520">
  <rect width="960" height="520" fill="white"/>
  <text x="60" y="50" font-family="Arial, sans-serif" font-size="28" fill="#111">Token Cost on Triple-equivalent Subset</text>
  <text x="60" y="82" font-family="Arial, sans-serif" font-size="15" fill="#555">52 tasks where MIR / JSON / PYTHON are semantically equivalent</text>

  <line x1="80" y1="430" x2="900" y2="430" stroke="#222" stroke-width="2"/>
  <line x1="80" y1="120" x2="80" y2="430" stroke="#222" stroke-width="2"/>

  <g font-family="Arial, sans-serif" font-size="14" fill="#666">
    <text x="34" y="434">0</text>
    <text x="24" y="356">100</text>
    <text x="24" y="279">200</text>
    <text x="24" y="201">300</text>
    <text x="24" y="124">400</text>
  </g>

  <g stroke="#ddd" stroke-width="1">
    <line x1="80" y1="352" x2="900" y2="352"/>
    <line x1="80" y1="275" x2="900" y2="275"/>
    <line x1="80" y1="197" x2="900" y2="197"/>
    <line x1="80" y1="120" x2="900" y2="120"/>
  </g>

  <g font-family="Arial, sans-serif" font-size="16" fill="#111">
    <text x="150" y="470">MIR</text>
    <text x="430" y="470">JSON</text>
    <text x="710" y="470">PYTHON</text>
  </g>

  <g>
    <rect x="120" y="305" width="50" height="125" fill="#4C78A8"/>
    <rect x="180" y="399" width="50" height="31" fill="#F58518"/>
    <rect x="240" y="340" width="50" height="90" fill="#54A24B"/>

    <rect x="400" y="326" width="50" height="104" fill="#4C78A8"/>
    <rect x="460" y="370" width="50" height="60" fill="#F58518"/>
    <rect x="520" y="200" width="50" height="230" fill="#54A24B"/>

    <rect x="680" y="323" width="50" height="107" fill="#4C78A8"/>
    <rect x="740" y="417" width="50" height="13" fill="#F58518"/>
    <rect x="800" y="383" width="50" height="47" fill="#54A24B"/>
  </g>

  <g font-family="Arial, sans-serif" font-size="14" fill="#111" text-anchor="middle">
    <text x="145" y="297">161.15</text>
    <text x="205" y="391">40.00</text>
    <text x="265" y="332">115.38</text>

    <text x="425" y="318">83.15</text>
    <text x="485" y="362">77.54</text>
    <text x="545" y="192">295.67</text>

    <text x="705" y="315">85.15</text>
    <text x="765" y="409">17.19</text>
    <text x="825" y="375">60.54</text>
  </g>

  <g font-family="Arial, sans-serif" font-size="13" fill="#555">
    <rect x="620" y="120" width="14" height="14" fill="#4C78A8"/>
    <text x="642" y="132">Input tokens</text>
    <rect x="620" y="146" width="14" height="14" fill="#F58518"/>
    <text x="642" y="158">Output tokens</text>
    <rect x="620" y="172" width="14" height="14" fill="#54A24B"/>
    <text x="642" y="184">Output bytes</text>
  </g>
</svg>
