<?xml version="1.0" encoding="utf-8" standalone="no"?>
<!DOCTYPE svg PUBLIC "-//W3C//DTD SVG 1.1//EN"
  "http://www.w3.org/Graphics/SVG/1.1/DTD/svg11.dtd">
<svg xmlns:xlink="http://www.w3.org/1999/xlink" width="416.16pt" height="197.352pt" viewBox="0 0 416.16 197.352" xmlns="http://www.w3.org/2000/svg" version="1.1">
 <metadata>
  <rdf:RDF xmlns:dc="http://purl.org/dc/elements/1.1/" xmlns:cc="http://creativecommons.org/ns#" xmlns:rdf="http://www.w3.org/1999/02/22-rdf-syntax-ns#">
   <cc:Work>
    <dc:type rdf:resource="http://purl.org/dc/dcmitype/StillImage"/>
    <dc:date>2026-06-05T16:08:02.247130</dc:date>
    <dc:format>image/svg+xml</dc:format>
    <dc:creator>
     <cc:Agent>
      <dc:title>Matplotlib v3.10.8, https://matplotlib.org/</dc:title>
     </cc:Agent>
    </dc:creator>
   </cc:Work>
  </rdf:RDF>
 </metadata>
 <defs>
  <style type="text/css">*{stroke-linejoin: round; stroke-linecap: butt}</style>
 </defs>
 <g id="figure_1">
  <g id="patch_1">
   <path d="M 0 197.352 
L 416.16 197.352 
L 416.16 0 
L 0 0 
z
" style="fill: #ffffff"/>
  </g>
  <g id="axes_1">
   <g id="patch_2">
    <path d="M 9.2088 69.769584 
L 53.4024 69.769584 
Q 58.22352 69.769584 58.22352 67.57416 
L 58.22352 29.15424 
Q 58.22352 26.958816 53.4024 26.958816 
L 9.2088 26.958816 
Q 4.38768 26.958816 4.38768 29.15424 
L 4.38768 67.57416 
Q 4.38768 69.769584 9.2088 69.769584 
z
" clip-path="url(#pa5a6dab6a5)" style="fill: #9a4d8e; opacity: 0.1"/>
   </g>
   <g id="patch_3">
    <path d="M 9.2088 69.769584 
L 53.4024 69.769584 
Q 58.22352 69.769584 58.22352 67.57416 
L 58.22352 29.15424 
Q 58.22352 26.958816 53.4024 26.958816 
L 9.2088 26.958816 
Q 4.38768 26.958816 4.38768 29.15424 
L 4.38768 67.57416 
Q 4.38768 69.769584 9.2088 69.769584 
L 9.2088 69.769584 
z
" clip-path="url(#pa5a6dab6a5)" style="fill: none; stroke: #9a4d8e; stroke-width: 0.7; stroke-linejoin: miter"/>
   </g>
   <g id="patch_4">
    <path d="M 60.63408 69.769584 
L 96.79248 69.769584 
Q 101.6136 69.769584 101.6136 67.57416 
L 101.6136 29.15424 
Q 101.6136 26.958816 96.79248 26.958816 
L 60.63408 26.958816 
Q 55.81296 26.958816 55.81296 29.15424 
L 55.81296 67.57416 
Q 55.81296 69.769584 60.63408 69.769584 
z
" clip-path="url(#pa5a6dab6a5)" style="fill: #0f4d92; opacity: 0.1"/>
   </g>
   <g id="patch_5">
    <path d="M 60.63408 69.769584 
L 96.79248 69.769584 
Q 101.6136 69.769584 101.6136 67.57416 
L 101.6136 29.15424 
Q 101.6136 26.958816 96.79248 26.958816 
L 60.63408 26.958816 
Q 55.81296 26.958816 55.81296 29.15424 
L 55.81296 67.57416 
Q 55.81296 69.769584 60.63408 69.769584 
L 60.63408 69.769584 
z
" clip-path="url(#pa5a6dab6a5)" style="fill: none; stroke: #0f4d92; stroke-width: 0.7; stroke-linejoin: miter"/>
   </g>
   <g id="patch_6">
    <path d="M 104.02416 69.769584 
L 140.18256 69.769584 
Q 145.00368 69.769584 145.00368 67.57416 
L 145.00368 29.15424 
Q 145.00368 26.958816 140.18256 26.958816 
L 104.02416 26.958816 
Q 99.20304 26.958816 99.20304 29.15424 
L 99.20304 67.57416 
Q 99.20304 69.769584 104.02416 69.769584 
z
" clip-path="url(#pa5a6dab6a5)" style="fill: #0f4d92; opacity: 0.1"/>
   </g>
   <g id="patch_7">
    <path d="M 104.02416 69.769584 
L 140.18256 69.769584 
Q 145.00368 69.769584 145.00368 67.57416 
L 145.00368 29.15424 
Q 145.00368 26.958816 140.18256 26.958816 
L 104.02416 26.958816 
Q 99.20304 26.958816 99.20304 29.15424 
L 99.20304 67.57416 
Q 99.20304 69.769584 104.02416 69.769584 
L 104.02416 69.769584 
z
" clip-path="url(#pa5a6dab6a5)" style="fill: none; stroke: #0f4d92; stroke-width: 0.7; stroke-linejoin: miter"/>
   </g>
   <g id="patch_8">
    <path d="M 147.41424 69.769584 
L 193.61664 69.769584 
Q 198.43776 69.769584 198.43776 67.57416 
L 198.43776 29.15424 
Q 198.43776 26.958816 193.61664 26.958816 
L 147.41424 26.958816 
Q 142.59312 26.958816 142.59312 29.15424 
L 142.59312 67.57416 
Q 142.59312 69.769584 147.41424 69.769584 
z
" clip-path="url(#pa5a6dab6a5)" style="fill: #0f4d92; opacity: 0.1"/>
   </g>
   <g id="patch_9">
    <path d="M 147.41424 69.769584 
L 193.61664 69.769584 
Q 198.43776 69.769584 198.43776 67.57416 
L 198.43776 29.15424 
Q 198.43776 26.958816 193.61664 26.958816 
L 147.41424 26.958816 
Q 142.59312 26.958816 142.59312 29.15424 
L 142.59312 67.57416 
Q 142.59312 69.769584 147.41424 69.769584 
L 147.41424 69.769584 
z
" clip-path="url(#pa5a6dab6a5)" style="fill: none; stroke: #0f4d92; stroke-width: 0.7; stroke-linejoin: miter"/>
   </g>
   <g id="patch_10">
    <path d="M 200.84832 69.769584 
L 245.04192 69.769584 
Q 249.86304 69.769584 249.86304 67.57416 
L 249.86304 29.15424 
Q 249.86304 26.958816 245.04192 26.958816 
L 200.84832 26.958816 
Q 196.0272 26.958816 196.0272 29.15424 
L 196.0272 67.57416 
Q 196.0272 69.769584 200.84832 69.769584 
z
" clip-path="url(#pa5a6dab6a5)" style="fill: #b64342; opacity: 0.1"/>
   </g>
   <g id="patch_11">
    <path d="M 200.84832 69.769584 
L 245.04192 69.769584 
Q 249.86304 69.769584 249.86304 67.57416 
L 249.86304 29.15424 
Q 249.86304 26.958816 245.04192 26.958816 
L 200.84832 26.958816 
Q 196.0272 26.958816 196.0272 29.15424 
L 196.0272 67.57416 
Q 196.0272 69.769584 200.84832 69.769584 
L 200.84832 69.769584 
z
" clip-path="url(#pa5a6dab6a5)" style="fill: none; stroke: #b64342; stroke-width: 0.7; stroke-linejoin: miter"/>
   </g>
   <g id="patch_12">
    <path d="M 252.2736 69.769584 
L 302.4936 69.769584 
Q 307.31472 69.769584 307.31472 67.57416 
L 307.31472 29.15424 
Q 307.31472 26.958816 302.4936 26.958816 
L 252.2736 26.958816 
Q 247.45248 26.958816 247.45248 29.15424 
L 247.45248 67.57416 
Q 247.45248 69.769584 252.2736 69.769584 
z
" clip-path="url(#pa5a6dab6a5)" style="fill: #3775ba; opacity: 0.1"/>
   </g>
   <g id="patch_13">
    <path d="M 252.2736 69.769584 
L 302.4936 69.769584 
Q 307.31472 69.769584 307.31472 67.57416 
L 307.31472 29.15424 
Q 307.31472 26.958816 302.4936 26.958816 
L 252.2736 26.958816 
Q 247.45248 26.958816 247.45248 29.15424 
L 247.45248 67.57416 
Q 247.45248 69.769584 252.2736 69.769584 
L 252.2736 69.769584 
z
" clip-path="url(#pa5a6dab6a5)" style="fill: none; stroke: #3775ba; stroke-width: 0.7; stroke-linejoin: miter"/>
   </g>
   <g id="patch_14">
    <path d="M 9.2088 152.097984 
L 55.4112 152.097984 
Q 60.23232 152.097984 60.23232 149.90256 
L 60.23232 113.31216 
Q 60.23232 111.116736 55.4112 111.116736 
L 9.2088 111.116736 
Q 4.38768 111.116736 4.38768 113.31216 
L 4.38768 149.90256 
Q 4.38768 152.097984 9.2088 152.097984 
z
" clip-path="url(#pa5a6dab6a5)" style="fill: #3775ba; opacity: 0.1"/>
   </g>
   <g id="patch_15">
    <path d="M 9.2088 152.097984 
L 55.4112 152.097984 
Q 60.23232 152.097984 60.23232 149.90256 
L 60.23232 113.31216 
Q 60.23232 111.116736 55.4112 111.116736 
L 9.2088 111.116736 
Q 4.38768 111.116736 4.38768 113.31216 
L 4.38768 149.90256 
Q 4.38768 152.097984 9.2088 152.097984 
L 9.2088 152.097984 
z
" clip-path="url(#pa5a6dab6a5)" style="fill: none; stroke: #3775ba; stroke-width: 0.7; stroke-linejoin: miter"/>
   </g>
   <g id="patch_16">
    <path d="M 66.66048 152.097984 
L 112.86288 152.097984 
Q 117.684 152.097984 117.684 149.90256 
L 117.684 113.31216 
Q 117.684 111.116736 112.86288 111.116736 
L 66.66048 111.116736 
Q 61.83936 111.116736 61.83936 113.31216 
L 61.83936 149.90256 
Q 61.83936 152.097984 66.66048 152.097984 
z
" clip-path="url(#pa5a6dab6a5)" style="fill: #9a4d8e; opacity: 0.1"/>
   </g>
   <g id="patch_17">
    <path d="M 66.66048 152.097984 
L 112.86288 152.097984 
Q 117.684 152.097984 117.684 149.90256 
L 117.684 113.31216 
Q 117.684 111.116736 112.86288 111.116736 
L 66.66048 111.116736 
Q 61.83936 111.116736 61.83936 113.31216 
L 61.83936 149.90256 
Q 61.83936 152.097984 66.66048 152.097984 
L 66.66048 152.097984 
z
" clip-path="url(#pa5a6dab6a5)" style="fill: none; stroke: #9a4d8e; stroke-width: 0.7; stroke-linejoin: miter"/>
   </g>
   <g id="patch_18">
    <path d="M 63.4464 188.688384 
L 115.6752 188.688384 
Q 120.49632 188.688384 120.49632 186.49296 
L 120.49632 157.22064 
Q 120.49632 155.025216 115.6752 155.025216 
L 63.4464 155.025216 
Q 58.62528 155.025216 58.62528 157.22064 
L 58.62528 186.49296 
Q 58.62528 188.688384 63.4464 188.688384 
z
" clip-path="url(#pa5a6dab6a5)" style="fill: #2e9e44; opacity: 0.1"/>
   </g>
   <g id="patch_19">
    <path d="M 63.4464 188.688384 
L 115.6752 188.688384 
Q 120.49632 188.688384 120.49632 186.49296 
L 120.49632 157.22064 
Q 120.49632 155.025216 115.6752 155.025216 
L 63.4464 155.025216 
Q 58.62528 155.025216 58.62528 157.22064 
L 58.62528 186.49296 
Q 58.62528 188.688384 63.4464 188.688384 
L 63.4464 188.688384 
z
" clip-path="url(#pa5a6dab6a5)" style="fill: none; stroke: #2e9e44; stroke-width: 0.7; stroke-linejoin: miter"/>
   </g>
   <g id="patch_20">
    <path d="M 123.7104 152.097984 
L 181.9656 152.097984 
Q 186.78672 152.097984 186.78672 149.90256 
L 186.78672 113.31216 
Q 186.78672 111.116736 181.9656 111.116736 
L 123.7104 111.116736 
Q 118.88928 111.116736 118.88928 113.31216 
L 118.88928 149.90256 
Q 118.88928 152.097984 123.7104 152.097984 
z
" clip-path="url(#pa5a6dab6a5)" style="fill: #b64342; opacity: 0.1"/>
   </g>
   <g id="patch_21">
    <path d="M 123.7104 152.097984 
L 181.9656 152.097984 
Q 186.78672 152.097984 186.78672 149.90256 
L 186.78672 113.31216 
Q 186.78672 111.116736 181.9656 111.116736 
L 123.7104 111.116736 
Q 118.88928 111.116736 118.88928 113.31216 
L 118.88928 149.90256 
Q 118.88928 152.097984 123.7104 152.097984 
L 123.7104 152.097984 
z
" clip-path="url(#pa5a6dab6a5)" style="fill: none; stroke: #b64342; stroke-width: 0.7; stroke-linejoin: miter"/>
   </g>
   <g id="patch_22">
    <path d="M 192.81312 152.097984 
L 245.04192 152.097984 
Q 249.86304 152.097984 249.86304 149.90256 
L 249.86304 113.31216 
Q 249.86304 111.116736 245.04192 111.116736 
L 192.81312 111.116736 
Q 187.992 111.116736 187.992 113.31216 
L 187.992 149.90256 
Q 187.992 152.097984 192.81312 152.097984 
z
" clip-path="url(#pa5a6dab6a5)" style="fill: #0f4d92; opacity: 0.1"/>
   </g>
   <g id="patch_23">
    <path d="M 192.81312 152.097984 
L 245.04192 152.097984 
Q 249.86304 152.097984 249.86304 149.90256 
L 249.86304 113.31216 
Q 249.86304 111.116736 245.04192 111.116736 
L 192.81312 111.116736 
Q 187.992 111.116736 187.992 113.31216 
L 187.992 149.90256 
Q 187.992 152.097984 192.81312 152.097984 
L 192.81312 152.097984 
z
" clip-path="url(#pa5a6dab6a5)" style="fill: none; stroke: #0f4d92; stroke-width: 0.7; stroke-linejoin: miter"/>
   </g>
   <g id="patch_24">
    <path d="M 256.2912 152.097984 
L 308.52 152.097984 
Q 313.34112 152.097984 313.34112 149.90256 
L 313.34112 113.31216 
Q 313.34112 111.116736 308.52 111.116736 
L 256.2912 111.116736 
Q 251.47008 111.116736 251.47008 113.31216 
L 251.47008 149.90256 
Q 251.47008 152.097984 256.2912 152.097984 
z
" clip-path="url(#pa5a6dab6a5)" style="fill: #9a4d8e; opacity: 0.1"/>
   </g>
   <g id="patch_25">
    <path d="M 256.2912 152.097984 
L 308.52 152.097984 
Q 313.34112 152.097984 313.34112 149.90256 
L 313.34112 113.31216 
Q 313.34112 111.116736 308.52 111.116736 
L 256.2912 111.116736 
Q 251.47008 111.116736 251.47008 113.31216 
L 251.47008 149.90256 
Q 251.47008 152.097984 256.2912 152.097984 
L 256.2912 152.097984 
z
" clip-path="url(#pa5a6dab6a5)" style="fill: none; stroke: #9a4d8e; stroke-width: 0.7; stroke-linejoin: miter"/>
   </g>
   <g id="text_1">
    <text style="font-weight: 700; font-size: 8.5px; font-family: 'Arial', 'Helvetica', 'DejaVu Sans', sans-serif; text-anchor: start; fill: #0f4d92" x="9.2088" y="18.876294" transform="rotate(-0 9.2088 18.876294)">Generation Pipeline</text>
   </g>
   <g id="text_2">
    <text style="font-weight: 700; font-size: 8.5px; font-family: 'Arial', 'Helvetica', 'DejaVu Sans', sans-serif; text-anchor: start; fill: #42949e" x="9.2088" y="104.863734" transform="rotate(-0 9.2088 104.863734)">Repair Loop (on failure)</text>
   </g>
   <g id="text_3">
    <text style="font-weight: 700; font-size: 6.5px; font-family: 'Arial', 'Helvetica', 'DejaVu Sans', sans-serif; fill: #272727" transform="translate(24.138334 40.445517)">Task</text>
    <text style="font-weight: 700; font-size: 6.5px; font-family: 'Arial', 'Helvetica', 'DejaVu Sans', sans-serif; fill: #272727" transform="translate(19.9306 46.846087)">Prompt</text>
   </g>
   <g id="text_4">
    <text style="font-size: 4.68px; font-family: 'Arial', 'Helvetica', 'DejaVu Sans', sans-serif; fill: #767676" transform="translate(21.311606 55.639468)">NL goal +</text>
    <text style="font-size: 4.68px; font-family: 'Arial', 'Helvetica', 'DejaVu Sans', sans-serif; fill: #767676" transform="translate(15.698897 59.974318)">device schema</text>
   </g>
   <g id="text_5">
    <text style="font-weight: 700; font-size: 6.5px; font-family: 'Arial', 'Helvetica', 'DejaVu Sans', sans-serif; text-anchor: middle; fill: #272727" x="78.71328" y="43.645802" transform="rotate(-0 78.71328 43.645802)">LLM</text>
   </g>
   <g id="text_6">
    <text style="font-size: 4.68px; font-family: 'Arial', 'Helvetica', 'DejaVu Sans', sans-serif; fill: #767676" transform="translate(68.309786 55.639468)">structured</text>
    <text style="font-size: 4.68px; font-family: 'Arial', 'Helvetica', 'DejaVu Sans', sans-serif; fill: #767676" transform="translate(67.655318 59.919474)">generation</text>
   </g>
   <g id="text_7">
    <text style="font-weight: 700; font-size: 6.5px; font-family: 'Arial', 'Helvetica', 'DejaVu Sans', sans-serif; text-anchor: middle; fill: #272727" x="122.10336" y="43.645802" transform="rotate(-0 122.10336 43.645802)">LIR</text>
   </g>
   <g id="text_8">
    <text style="font-size: 4.68px; font-family: 'Arial', 'Helvetica', 'DejaVu Sans', sans-serif; fill: #767676" transform="translate(110.007388 55.639468)">textual DSL</text>
    <text style="font-size: 4.68px; font-family: 'Arial', 'Helvetica', 'DejaVu Sans', sans-serif; fill: #767676" transform="translate(105.717876 59.919474)">control program</text>
   </g>
   <g id="text_9">
    <text style="font-weight: 700; font-size: 6.5px; font-family: 'Arial', 'Helvetica', 'DejaVu Sans', sans-serif; text-anchor: middle; fill: #272727" x="170.51544" y="43.685411" transform="rotate(-0 170.51544 43.685411)">Compiler</text>
   </g>
   <g id="text_10">
    <text style="font-size: 4.68px; font-family: 'Arial', 'Helvetica', 'DejaVu Sans', sans-serif; fill: #767676" transform="translate(156.794631 55.612046)">IR lowering +</text>
    <text style="font-size: 4.68px; font-family: 'Arial', 'Helvetica', 'DejaVu Sans', sans-serif; fill: #767676" transform="translate(150.871506 59.946896)">bytecode encoding</text>
   </g>
   <g id="text_11">
    <text style="font-weight: 700; font-size: 6.5px; font-family: 'Arial', 'Helvetica', 'DejaVu Sans', sans-serif; text-anchor: middle; fill: #272727" x="222.94512" y="43.645802" transform="rotate(-0 222.94512 43.645802)">Verifier</text>
   </g>
   <g id="text_12">
    <text style="font-size: 4.68px; font-family: 'Arial', 'Helvetica', 'DejaVu Sans', sans-serif; fill: #767676" transform="translate(206.296751 55.66689)">opcode / varint /</text>
    <text style="font-size: 4.68px; font-family: 'Arial', 'Helvetica', 'DejaVu Sans', sans-serif; fill: #767676" transform="translate(209.546061 60.003934)">bounds / cap</text>
   </g>
   <g id="text_13">
    <text style="font-weight: 700; font-size: 6.5px; font-family: 'Arial', 'Helvetica', 'DejaVu Sans', sans-serif; text-anchor: middle; fill: #272727" x="277.3836" y="43.645802" transform="rotate(-0 277.3836 43.645802)">LVM</text>
   </g>
   <g id="text_14">
    <text style="font-size: 4.68px; font-family: 'Arial', 'Helvetica', 'DejaVu Sans', sans-serif; fill: #767676" transform="translate(257.608406 55.66689)">bounded execution</text>
    <text style="font-size: 4.68px; font-family: 'Arial', 'Helvetica', 'DejaVu Sans', sans-serif; fill: #767676" transform="translate(268.802016 59.946896)">on MCU</text>
   </g>
   <g id="patch_26">
    <path d="M 55.40453 48.3642 
Q 57.019613 48.3642 57.852073 48.3642 
" style="fill: none; stroke: #4d4d4d; stroke-width: 0.7; stroke-linecap: round"/>
    <path d="M 55.052073 46.9642 
L 57.852073 48.3642 
L 55.052073 49.7642 
" style="fill: none; stroke: #4d4d4d; stroke-width: 0.7; stroke-linecap: round"/>
   </g>
   <g id="patch_27">
    <path d="M 98.79461 48.3642 
Q 100.409693 48.3642 101.242153 48.3642 
" style="fill: none; stroke: #4d4d4d; stroke-width: 0.7; stroke-linecap: round"/>
    <path d="M 98.442153 46.9642 
L 101.242153 48.3642 
L 98.442153 49.7642 
" style="fill: none; stroke: #4d4d4d; stroke-width: 0.7; stroke-linecap: round"/>
   </g>
   <g id="patch_28">
    <path d="M 142.18469 48.3642 
Q 143.799773 48.3642 144.632233 48.3642 
" style="fill: none; stroke: #4d4d4d; stroke-width: 0.7; stroke-linecap: round"/>
    <path d="M 141.832233 46.9642 
L 144.632233 48.3642 
L 141.832233 49.7642 
" style="fill: none; stroke: #4d4d4d; stroke-width: 0.7; stroke-linecap: round"/>
   </g>
   <g id="patch_29">
    <path d="M 195.61877 48.3642 
Q 197.233853 48.3642 198.066313 48.3642 
" style="fill: none; stroke: #4d4d4d; stroke-width: 0.7; stroke-linecap: round"/>
    <path d="M 195.266313 46.9642 
L 198.066313 48.3642 
L 195.266313 49.7642 
" style="fill: none; stroke: #4d4d4d; stroke-width: 0.7; stroke-linecap: round"/>
   </g>
   <g id="patch_30">
    <path d="M 247.04405 48.3642 
Q 248.659133 48.3642 249.491593 48.3642 
" style="fill: none; stroke: #4d4d4d; stroke-width: 0.7; stroke-linecap: round"/>
    <path d="M 246.691593 46.9642 
L 249.491593 48.3642 
L 246.691593 49.7642 
" style="fill: none; stroke: #4d4d4d; stroke-width: 0.7; stroke-linecap: round"/>
   </g>
   <g id="text_15">
    <text style="font-weight: 700; font-size: 6.5px; font-family: 'Arial', 'Helvetica', 'DejaVu Sans', sans-serif; fill: #272727" transform="translate(25.689648 123.645106)">LVM</text>
    <text style="font-weight: 700; font-size: 6.5px; font-family: 'Arial', 'Helvetica', 'DejaVu Sans', sans-serif; fill: #272727" transform="translate(21.662695 130.132817)">Output</text>
   </g>
   <g id="text_16">
    <text style="font-size: 4.68px; font-family: 'Arial', 'Helvetica', 'DejaVu Sans', sans-serif; fill: #767676" transform="translate(26.198578 138.91005)">OK or</text>
    <text style="font-size: 4.68px; font-family: 'Arial', 'Helvetica', 'DejaVu Sans', sans-serif; fill: #767676" transform="translate(25.200788 143.190056)">FAULT</text>
   </g>
   <g id="patch_31">
    <path d="M 275.219469 67.940561 
Q 154.645475 90.443243 34.840822 112.802343 
" style="fill: none; stroke: #4d4d4d; stroke-width: 0.7; stroke-linecap: round"/>
    <path d="M 37.850144 113.664887 
L 34.840822 112.802343 
L 37.336451 110.912412 
" style="fill: none; stroke: #4d4d4d; stroke-width: 0.7; stroke-linecap: round"/>
   </g>
   <g id="text_17">
    <text style="font-weight: 700; font-size: 6.5px; font-family: 'Arial', 'Helvetica', 'DejaVu Sans', sans-serif; fill: #272727" transform="translate(80.906953 123.688677)">Parse</text>
    <text style="font-weight: 700; font-size: 6.5px; font-family: 'Arial', 'Helvetica', 'DejaVu Sans', sans-serif; fill: #272727" transform="translate(79.829883 130.089247)">Result</text>
   </g>
   <g id="text_18">
    <text style="font-size: 4.68px; font-family: 'Arial', 'Helvetica', 'DejaVu Sans', sans-serif; fill: #767676" transform="translate(82.737658 138.911147)">stage /</text>
    <text style="font-size: 4.68px; font-family: 'Arial', 'Helvetica', 'DejaVu Sans', sans-serif; fill: #767676" transform="translate(79.097861 143.245997)">error code</text>
   </g>
   <g id="patch_32">
    <path d="M 57.41333 131.60736 
Q 61.036786 131.60736 63.877618 131.60736 
" style="fill: none; stroke: #4d4d4d; stroke-width: 0.7; stroke-linecap: round"/>
    <path d="M 61.077618 130.20736 
L 63.877618 131.60736 
L 61.077618 133.00736 
" style="fill: none; stroke: #4d4d4d; stroke-width: 0.7; stroke-linecap: round"/>
   </g>
   <g id="text_19">
    <text style="font-weight: 700; font-size: 6.5px; font-family: 'Arial', 'Helvetica', 'DejaVu Sans', sans-serif; text-anchor: middle; fill: #272727" x="89.5608" y="167.138402" transform="rotate(-0 89.5608 167.138402)">Accept</text>
   </g>
   <g id="text_20">
    <text style="font-size: 4.68px; font-family: 'Arial', 'Helvetica', 'DejaVu Sans', sans-serif; text-anchor: middle; fill: #767676" x="89.5608" y="181.299493" transform="rotate(-0 89.5608 181.299493)">task done</text>
   </g>
   <g id="patch_33">
    <path d="M 89.5608 151.900024 
Q 89.5608 153.561418 89.5608 154.440187 
" style="fill: none; stroke: #2e9e44; stroke-width: 0.7; stroke-linecap: round"/>
    <path d="M 90.9608 151.640187 
L 89.5608 154.440187 
L 88.1608 151.640187 
" style="fill: none; stroke: #2e9e44; stroke-width: 0.7; stroke-linecap: round"/>
   </g>
   <g id="text_21">
    <text style="font-size: 5.5px; font-family: 'Arial', 'Helvetica', 'DejaVu Sans', sans-serif; text-anchor: start; fill: #2e9e44" x="96.39072" y="156.812956" transform="rotate(-0 96.39072 156.812956)">OK</text>
   </g>
   <g id="text_22">
    <text style="font-weight: 700; font-size: 6px; font-family: 'Arial', 'Helvetica', 'DejaVu Sans', sans-serif; fill: #272727" transform="translate(145.501594 123.805243)">Error</text>
    <text style="font-weight: 700; font-size: 6px; font-family: 'Arial', 'Helvetica', 'DejaVu Sans', sans-serif; fill: #272727" transform="translate(138.835969 129.713462)">Formatter</text>
   </g>
   <g id="text_23">
    <text style="font-size: 4.32px; font-family: 'Arial', 'Helvetica', 'DejaVu Sans', sans-serif; fill: #767676" transform="translate(139.870575 138.930975)">stage / code /</text>
    <text style="font-size: 4.32px; font-family: 'Arial', 'Helvetica', 'DejaVu Sans', sans-serif; fill: #767676" transform="translate(138.791588 142.985025)">message / hint</text>
   </g>
   <g id="patch_34">
    <path d="M 114.862362 131.60736 
Q 118.286224 131.60736 120.927463 131.60736 
" style="fill: none; stroke: #4d4d4d; stroke-width: 0.7; stroke-linecap: round"/>
    <path d="M 118.127463 130.20736 
L 120.927463 131.60736 
L 118.127463 133.00736 
" style="fill: none; stroke: #4d4d4d; stroke-width: 0.7; stroke-linecap: round"/>
   </g>
   <g id="text_24">
    <text style="font-weight: 700; font-size: 6.5px; font-family: 'Arial', 'Helvetica', 'DejaVu Sans', sans-serif; fill: #272727" transform="translate(212.250293 123.688677)">LLM</text>
    <text style="font-weight: 700; font-size: 6.5px; font-family: 'Arial', 'Helvetica', 'DejaVu Sans', sans-serif; fill: #272727" transform="translate(208.812911 130.089247)">Repair</text>
   </g>
   <g id="text_25">
    <text style="font-size: 4.68px; font-family: 'Arial', 'Helvetica', 'DejaVu Sans', sans-serif; fill: #767676" transform="translate(207.610329 138.855206)">regenerate</text>
    <text style="font-size: 4.68px; font-family: 'Arial', 'Helvetica', 'DejaVu Sans', sans-serif; fill: #767676" transform="translate(206.57232 143.190056)">with context</text>
   </g>
   <g id="patch_35">
    <path d="M 183.965082 131.60736 
Q 187.388944 131.60736 190.030183 131.60736 
" style="fill: none; stroke: #4d4d4d; stroke-width: 0.7; stroke-linecap: round"/>
    <path d="M 187.230183 130.20736 
L 190.030183 131.60736 
L 187.230183 133.00736 
" style="fill: none; stroke: #4d4d4d; stroke-width: 0.7; stroke-linecap: round"/>
   </g>
   <g id="text_26">
    <text style="font-weight: 700; font-size: 6.5px; font-family: 'Arial', 'Helvetica', 'DejaVu Sans', sans-serif; fill: #272727" transform="translate(274.643178 123.688677)">Fault</text>
    <text style="font-weight: 700; font-size: 6.5px; font-family: 'Arial', 'Helvetica', 'DejaVu Sans', sans-serif; fill: #272727" transform="translate(273.912436 130.089247)">Trace</text>
   </g>
   <g id="text_27">
    <text style="font-size: 4.68px; font-family: 'Arial', 'Helvetica', 'DejaVu Sans', sans-serif; fill: #767676" transform="translate(272.261334 138.938569)">pc / fault /</text>
    <text style="font-size: 4.68px; font-family: 'Arial', 'Helvetica', 'DejaVu Sans', sans-serif; fill: #767676" transform="translate(276.813 143.218575)">steps</text>
   </g>
   <g id="patch_36">
    <path d="M 247.04405 131.60736 
Q 250.667506 131.60736 253.508338 131.60736 
" style="fill: none; stroke: #4d4d4d; stroke-width: 0.7; stroke-linecap: round"/>
    <path d="M 250.708338 130.20736 
L 253.508338 131.60736 
L 250.708338 133.00736 
" style="fill: none; stroke: #4d4d4d; stroke-width: 0.7; stroke-linecap: round"/>
   </g>
   <g id="text_28">
    <text style="font-size: 5px; font-family: 'Arial', 'Helvetica', 'DejaVu Sans', sans-serif; text-anchor: middle; fill: #9a4d8e" x="282.4056" y="125.20404" transform="rotate(-0 282.4056 125.20404)">audit</text>
   </g>
   <g id="patch_37">
    <path d="M 217.105166 112.492661 
Q 187.043924 98.642932 172.047874 70.143944 
" style="fill: none; stroke-dasharray: 2.96,1.28; stroke-dashoffset: 0; stroke: #42949e; stroke-width: 0.8; stroke-linecap: round"/>
    <path d="M 172.112785 73.273766 
L 172.047874 70.143944 
L 174.590678 71.969909 
" style="fill: none; stroke-dasharray: 2.96,1.28; stroke-dashoffset: 0; stroke: #42949e; stroke-width: 0.8; stroke-linecap: round"/>
   </g>
   <g id="text_29">
    <text style="font-size: 5.5px; font-family: 'Arial', 'Helvetica', 'DejaVu Sans', sans-serif; fill: #42949e" transform="translate(212.0976 89.79867)">re-compile</text>
    <text style="font-size: 5.5px; font-family: 'Arial', 'Helvetica', 'DejaVu Sans', sans-serif; fill: #42949e" transform="translate(212.0976 95.696389)">(max 3 rounds)</text>
   </g>
  </g>
 </g>
 <defs>
  <clipPath id="pa5a6dab6a5">
   <rect x="7.2" y="7.2" width="401.76" height="182.952"/>
  </clipPath>
 </defs>
</svg>
