<?xml version="1.0" encoding="utf-8" standalone="no"?>
<!DOCTYPE svg PUBLIC "-//W3C//DTD SVG 1.1//EN"
  "http://www.w3.org/Graphics/SVG/1.1/DTD/svg11.dtd">
<svg xmlns:xlink="http://www.w3.org/1999/xlink" width="250.111875pt" height="169.8067pt" viewBox="0 0 250.111875 169.8067" xmlns="http://www.w3.org/2000/svg" version="1.1">
 <metadata>
  <rdf:RDF xmlns:dc="http://purl.org/dc/elements/1.1/" xmlns:cc="http://creativecommons.org/ns#" xmlns:rdf="http://www.w3.org/1999/02/22-rdf-syntax-ns#">
   <cc:Work>
    <dc:type rdf:resource="http://purl.org/dc/dcmitype/StillImage"/>
    <dc:date>2026-06-05T15:22:07.054247</dc:date>
    <dc:format>image/svg+xml</dc:format>
    <dc:creator>
     <cc:Agent>
      <dc:title>Matplotlib v3.10.8, https://matplotlib.org/</dc:title>
     </cc:Agent>
    </dc:creator>
   </cc:Work>
  </rdf:RDF>
 </metadata>
 <defs>
  <style type="text/css">*{stroke-linejoin: round; stroke-linecap: butt}</style>
 </defs>
 <g id="figure_1">
  <g id="patch_1">
   <path d="M 0 169.8067 
L 250.111875 169.8067 
L 250.111875 0 
L 0 0 
z
" style="fill: #ffffff"/>
  </g>
  <g id="axes_1">
   <g id="patch_2">
    <path d="M 35.24625 144.614606 
L 213.66625 144.614606 
L 213.66625 23.998566 
L 35.24625 23.998566 
z
" style="fill: #ffffff"/>
   </g>
   <g id="patch_3">
    <path d="M 43.35625 144.614606 
L 66.527679 144.614606 
L 66.527679 48.121774 
L 43.35625 48.121774 
z
" clip-path="url(#paf46d64524)" style="fill: url(#ha7f7ae333a); stroke: #ffffff; stroke-width: 0.5; stroke-linejoin: miter"/>
   </g>
   <g id="patch_4">
    <path d="M 89.699107 144.614606 
L 112.870536 144.614606 
L 112.870536 48.121774 
L 89.699107 48.121774 
z
" clip-path="url(#paf46d64524)" style="fill: #0f4d92; stroke: #ffffff; stroke-width: 0.5; stroke-linejoin: miter"/>
   </g>
   <g id="patch_5">
    <path d="M 136.041964 144.614606 
L 159.213393 144.614606 
L 159.213393 80.929337 
L 136.041964 80.929337 
z
" clip-path="url(#paf46d64524)" style="fill: #0f4d92; stroke: #ffffff; stroke-width: 0.5; stroke-linejoin: miter"/>
   </g>
   <g id="patch_6">
    <path d="M 182.384821 144.614606 
L 205.55625 144.614606 
L 205.55625 80.929337 
L 182.384821 80.929337 
z
" clip-path="url(#paf46d64524)" style="fill: #0f4d92; stroke: #ffffff; stroke-width: 0.5; stroke-linejoin: miter"/>
   </g>
   <g id="matplotlib.axis_1">
    <g id="xtick_1">
     <g id="line2d_1">
      <defs>
       <path id="m8ffebfe430" d="M 0 0 
L 0 3.5 
" style="stroke: #000000; stroke-width: 0.8"/>
      </defs>
      <g>
       <use xlink:href="#m8ffebfe430" x="54.941964" y="144.614606" style="stroke: #000000; stroke-width: 0.8"/>
      </g>
     </g>
     <g id="text_1">
      <text style="font-size: 5.5px; font-family: 'Arial', 'Helvetica', 'DejaVu Sans', sans-serif" transform="translate(47.607628 155.551403)">JSON</text>
      <text style="font-size: 5.5px; font-family: 'Arial', 'Helvetica', 'DejaVu Sans', sans-serif" transform="translate(43.633878 161.449122)">(with opt)</text>
     </g>
    </g>
    <g id="xtick_2">
     <g id="line2d_2">
      <g>
       <use xlink:href="#m8ffebfe430" x="101.284821" y="144.614606" style="stroke: #000000; stroke-width: 0.8"/>
      </g>
     </g>
     <g id="text_2">
      <text style="font-size: 5.5px; font-family: 'Arial', 'Helvetica', 'DejaVu Sans', sans-serif" transform="translate(97.005564 155.551403)">LIR</text>
      <text style="font-size: 5.5px; font-family: 'Arial', 'Helvetica', 'DejaVu Sans', sans-serif" transform="translate(89.976735 161.449122)">(with opt)</text>
     </g>
    </g>
    <g id="xtick_3">
     <g id="line2d_3">
      <g>
       <use xlink:href="#m8ffebfe430" x="147.627679" y="144.614606" style="stroke: #000000; stroke-width: 0.8"/>
      </g>
     </g>
     <g id="text_3">
      <text style="font-size: 5.5px; font-family: 'Arial', 'Helvetica', 'DejaVu Sans', sans-serif" transform="translate(143.348421 155.551403)">LIR</text>
      <text style="font-size: 5.5px; font-family: 'Arial', 'Helvetica', 'DejaVu Sans', sans-serif" transform="translate(138.15135 161.449122)">(no opt)</text>
     </g>
    </g>
    <g id="xtick_4">
     <g id="line2d_4">
      <g>
       <use xlink:href="#m8ffebfe430" x="193.970536" y="144.614606" style="stroke: #000000; stroke-width: 0.8"/>
      </g>
     </g>
     <g id="text_4">
      <text style="font-size: 5.5px; font-family: 'Arial', 'Helvetica', 'DejaVu Sans', sans-serif" transform="translate(189.691278 155.551403)">LIR</text>
      <text style="font-size: 5.5px; font-family: 'Arial', 'Helvetica', 'DejaVu Sans', sans-serif" transform="translate(182.817137 161.449122)">(no retry)</text>
     </g>
    </g>
   </g>
   <g id="matplotlib.axis_2">
    <g id="ytick_1">
     <g id="line2d_5">
      <defs>
       <path id="mac546409c9" d="M 0 0 
L -3.5 0 
" style="stroke: #000000; stroke-width: 0.8"/>
      </defs>
      <g>
       <use xlink:href="#mac546409c9" x="35.24625" y="144.614606" style="stroke: #000000; stroke-width: 0.8"/>
      </g>
     </g>
     <g id="text_5">
      <text style="font-size: 7px; font-family: 'Arial', 'Helvetica', 'DejaVu Sans', sans-serif; text-anchor: end" x="28.24625" y="147.119841" transform="rotate(-0 28.24625 147.119841)">0.0</text>
     </g>
    </g>
    <g id="ytick_2">
     <g id="line2d_6">
      <g>
       <use xlink:href="#mac546409c9" x="35.24625" y="125.31604" style="stroke: #000000; stroke-width: 0.8"/>
      </g>
     </g>
     <g id="text_6">
      <text style="font-size: 7px; font-family: 'Arial', 'Helvetica', 'DejaVu Sans', sans-serif; text-anchor: end" x="28.24625" y="127.821274" transform="rotate(-0 28.24625 127.821274)">0.2</text>
     </g>
    </g>
    <g id="ytick_3">
     <g id="line2d_7">
      <g>
       <use xlink:href="#mac546409c9" x="35.24625" y="106.017474" style="stroke: #000000; stroke-width: 0.8"/>
      </g>
     </g>
     <g id="text_7">
      <text style="font-size: 7px; font-family: 'Arial', 'Helvetica', 'DejaVu Sans', sans-serif; text-anchor: end" x="28.24625" y="108.522708" transform="rotate(-0 28.24625 108.522708)">0.4</text>
     </g>
    </g>
    <g id="ytick_4">
     <g id="line2d_8">
      <g>
       <use xlink:href="#mac546409c9" x="35.24625" y="86.718907" style="stroke: #000000; stroke-width: 0.8"/>
      </g>
     </g>
     <g id="text_8">
      <text style="font-size: 7px; font-family: 'Arial', 'Helvetica', 'DejaVu Sans', sans-serif; text-anchor: end" x="28.24625" y="89.224142" transform="rotate(-0 28.24625 89.224142)">0.6</text>
     </g>
    </g>
    <g id="ytick_5">
     <g id="line2d_9">
      <g>
       <use xlink:href="#mac546409c9" x="35.24625" y="67.420341" style="stroke: #000000; stroke-width: 0.8"/>
      </g>
     </g>
     <g id="text_9">
      <text style="font-size: 7px; font-family: 'Arial', 'Helvetica', 'DejaVu Sans', sans-serif; text-anchor: end" x="28.24625" y="69.925575" transform="rotate(-0 28.24625 69.925575)">0.8</text>
     </g>
    </g>
    <g id="ytick_6">
     <g id="line2d_10">
      <g>
       <use xlink:href="#mac546409c9" x="35.24625" y="48.121774" style="stroke: #000000; stroke-width: 0.8"/>
      </g>
     </g>
     <g id="text_10">
      <text style="font-size: 7px; font-family: 'Arial', 'Helvetica', 'DejaVu Sans', sans-serif; text-anchor: end" x="28.24625" y="50.627009" transform="rotate(-0 28.24625 50.627009)">1.0</text>
     </g>
    </g>
    <g id="ytick_7">
     <g id="line2d_11">
      <g>
       <use xlink:href="#mac546409c9" x="35.24625" y="28.823208" style="stroke: #000000; stroke-width: 0.8"/>
      </g>
     </g>
     <g id="text_11">
      <text style="font-size: 7px; font-family: 'Arial', 'Helvetica', 'DejaVu Sans', sans-serif; text-anchor: end" x="28.24625" y="31.328442" transform="rotate(-0 28.24625 31.328442)">1.2</text>
     </g>
    </g>
    <g id="text_12">
     <text style="font-size: 8px; font-family: 'Arial', 'Helvetica', 'DejaVu Sans', sans-serif; text-anchor: middle" x="12.92625" y="84.306586" transform="rotate(-90 12.92625 84.306586)">SCR</text>
    </g>
   </g>
   <g id="LineCollection_1">
    <path d="M 54.941964 51.691508 
L 54.941964 48.121774 
" clip-path="url(#paf46d64524)" style="fill: none; stroke: #272727; stroke-width: 0.8"/>
    <path d="M 101.284821 51.691508 
L 101.284821 48.121774 
" clip-path="url(#paf46d64524)" style="fill: none; stroke: #272727; stroke-width: 0.8"/>
    <path d="M 147.627679 90.310809 
L 147.627679 72.690181 
" clip-path="url(#paf46d64524)" style="fill: none; stroke: #272727; stroke-width: 0.8"/>
    <path d="M 193.970536 90.310809 
L 193.970536 72.690181 
" clip-path="url(#paf46d64524)" style="fill: none; stroke: #272727; stroke-width: 0.8"/>
   </g>
   <g id="line2d_12">
    <defs>
     <path id="me2cf9562c2" d="M 2 0 
L -2 -0 
" style="stroke: #272727; stroke-width: 0.6"/>
    </defs>
    <g clip-path="url(#paf46d64524)">
     <use xlink:href="#me2cf9562c2" x="54.941964" y="51.691508" style="fill: #1f77b4; stroke: #272727; stroke-width: 0.6"/>
     <use xlink:href="#me2cf9562c2" x="101.284821" y="51.691508" style="fill: #1f77b4; stroke: #272727; stroke-width: 0.6"/>
     <use xlink:href="#me2cf9562c2" x="147.627679" y="90.310809" style="fill: #1f77b4; stroke: #272727; stroke-width: 0.6"/>
     <use xlink:href="#me2cf9562c2" x="193.970536" y="90.310809" style="fill: #1f77b4; stroke: #272727; stroke-width: 0.6"/>
    </g>
   </g>
   <g id="line2d_13">
    <g clip-path="url(#paf46d64524)">
     <use xlink:href="#me2cf9562c2" x="54.941964" y="48.121774" style="fill: #1f77b4; stroke: #272727; stroke-width: 0.6"/>
     <use xlink:href="#me2cf9562c2" x="101.284821" y="48.121774" style="fill: #1f77b4; stroke: #272727; stroke-width: 0.6"/>
     <use xlink:href="#me2cf9562c2" x="147.627679" y="72.690181" style="fill: #1f77b4; stroke: #272727; stroke-width: 0.6"/>
     <use xlink:href="#me2cf9562c2" x="193.970536" y="72.690181" style="fill: #1f77b4; stroke: #272727; stroke-width: 0.6"/>
    </g>
   </g>
   <g id="patch_7">
    <path d="M 35.24625 144.614606 
L 35.24625 23.998566 
" style="fill: none; stroke: #000000; stroke-width: 0.8; stroke-linejoin: miter; stroke-linecap: square"/>
   </g>
   <g id="patch_8">
    <path d="M 35.24625 144.614606 
L 213.66625 144.614606 
" style="fill: none; stroke: #000000; stroke-width: 0.8; stroke-linejoin: miter; stroke-linecap: square"/>
   </g>
   <g id="text_13">
    <text style="font-weight: 700; font-size: 6.5px; font-family: 'Arial', 'Helvetica', 'DejaVu Sans', sans-serif; text-anchor: middle; fill: #272727" x="54.941964" y="42.014398" transform="rotate(-0 54.941964 42.014398)">1.00</text>
   </g>
   <g id="text_14">
    <text style="font-weight: 700; font-size: 6.5px; font-family: 'Arial', 'Helvetica', 'DejaVu Sans', sans-serif; text-anchor: middle; fill: #272727" x="101.284821" y="42.014398" transform="rotate(-0 101.284821 42.014398)">1.00</text>
   </g>
   <g id="text_15">
    <text style="font-weight: 700; font-size: 6.5px; font-family: 'Arial', 'Helvetica', 'DejaVu Sans', sans-serif; text-anchor: middle; fill: #272727" x="147.627679" y="74.821961" transform="rotate(-0 147.627679 74.821961)">0.66</text>
   </g>
   <g id="text_16">
    <text style="font-weight: 700; font-size: 6.5px; font-family: 'Arial', 'Helvetica', 'DejaVu Sans', sans-serif; text-anchor: middle; fill: #272727" x="193.970536" y="74.821961" transform="rotate(-0 193.970536 74.821961)">0.66</text>
   </g>
   <g id="legend_1">
    <g id="patch_9">
     <path d="M 70.807031 12.842969 
L 80.807031 12.842969 
L 80.807031 9.342969 
L 70.807031 9.342969 
z
" style="fill: #0f4d92"/>
    </g>
    <g id="text_17">
     <text style="font-size: 5px; font-family: 'Arial', 'Helvetica', 'DejaVu Sans', sans-serif; text-anchor: start" x="82.807031" y="12.842969" transform="rotate(-0 82.807031 12.842969)">SCR (LIR)</text>
    </g>
    <g id="patch_10">
     <path d="M 110.863281 12.842969 
L 120.863281 12.842969 
L 120.863281 9.342969 
L 110.863281 9.342969 
z
" style="fill: url(#hf0ab45ec56)"/>
    </g>
    <g id="text_18">
     <text style="font-size: 5px; font-family: 'Arial', 'Helvetica', 'DejaVu Sans', sans-serif; text-anchor: start" x="122.863281" y="12.842969" transform="rotate(-0 122.863281 12.842969)">SCR (JSON)</text>
    </g>
    <g id="line2d_14">
     <path d="M 156.474219 11.092969 
L 161.474219 11.092969 
L 166.474219 11.092969 
" style="fill: none; stroke: #e53935; stroke-width: 1.5; stroke-linecap: square"/>
     <defs>
      <path id="me3e5f6ce4c" d="M 0 2.828427 
L 2.828427 0 
L 0 -2.828427 
L -2.828427 0 
z
" style="stroke: #e53935; stroke-linejoin: miter"/>
     </defs>
     <g>
      <use xlink:href="#me3e5f6ce4c" x="161.474219" y="11.092969" style="fill: #e53935; stroke: #e53935; stroke-linejoin: miter"/>
     </g>
    </g>
    <g id="text_19">
     <text style="font-size: 5px; font-family: 'Arial', 'Helvetica', 'DejaVu Sans', sans-serif; text-anchor: start" x="168.474219" y="12.842969" transform="rotate(-0 168.474219 12.842969)">RTT</text>
    </g>
   </g>
  </g>
  <g id="axes_2">
   <g id="matplotlib.axis_3">
    <g id="ytick_8">
     <g id="line2d_15">
      <defs>
       <path id="m6d62659327" d="M 0 0 
L 3.5 0 
" style="stroke: #000000; stroke-width: 0.8"/>
      </defs>
      <g>
       <use xlink:href="#m6d62659327" x="213.66625" y="130.021065" style="stroke: #000000; stroke-width: 0.8"/>
      </g>
     </g>
     <g id="text_20">
      <text style="font-size: 6px; font-family: 'Arial', 'Helvetica', 'DejaVu Sans', sans-serif; text-anchor: start; fill: #e53935" x="220.66625" y="132.168408" transform="rotate(-0 220.66625 132.168408)">20.0</text>
     </g>
    </g>
    <g id="ytick_9">
     <g id="line2d_16">
      <g>
       <use xlink:href="#m6d62659327" x="213.66625" y="114.070444" style="stroke: #000000; stroke-width: 0.8"/>
      </g>
     </g>
     <g id="text_21">
      <text style="font-size: 6px; font-family: 'Arial', 'Helvetica', 'DejaVu Sans', sans-serif; text-anchor: start; fill: #e53935" x="220.66625" y="116.217788" transform="rotate(-0 220.66625 116.217788)">22.5</text>
     </g>
    </g>
    <g id="ytick_10">
     <g id="line2d_17">
      <g>
       <use xlink:href="#m6d62659327" x="213.66625" y="98.119824" style="stroke: #000000; stroke-width: 0.8"/>
      </g>
     </g>
     <g id="text_22">
      <text style="font-size: 6px; font-family: 'Arial', 'Helvetica', 'DejaVu Sans', sans-serif; text-anchor: start; fill: #e53935" x="220.66625" y="100.267167" transform="rotate(-0 220.66625 100.267167)">25.0</text>
     </g>
    </g>
    <g id="ytick_11">
     <g id="line2d_18">
      <g>
       <use xlink:href="#m6d62659327" x="213.66625" y="82.169203" style="stroke: #000000; stroke-width: 0.8"/>
      </g>
     </g>
     <g id="text_23">
      <text style="font-size: 6px; font-family: 'Arial', 'Helvetica', 'DejaVu Sans', sans-serif; text-anchor: start; fill: #e53935" x="220.66625" y="84.316547" transform="rotate(-0 220.66625 84.316547)">27.5</text>
     </g>
    </g>
    <g id="ytick_12">
     <g id="line2d_19">
      <g>
       <use xlink:href="#m6d62659327" x="213.66625" y="66.218583" style="stroke: #000000; stroke-width: 0.8"/>
      </g>
     </g>
     <g id="text_24">
      <text style="font-size: 6px; font-family: 'Arial', 'Helvetica', 'DejaVu Sans', sans-serif; text-anchor: start; fill: #e53935" x="220.66625" y="68.365927" transform="rotate(-0 220.66625 68.365927)">30.0</text>
     </g>
    </g>
    <g id="ytick_13">
     <g id="line2d_20">
      <g>
       <use xlink:href="#m6d62659327" x="213.66625" y="50.267962" style="stroke: #000000; stroke-width: 0.8"/>
      </g>
     </g>
     <g id="text_25">
      <text style="font-size: 6px; font-family: 'Arial', 'Helvetica', 'DejaVu Sans', sans-serif; text-anchor: start; fill: #e53935" x="220.66625" y="52.415306" transform="rotate(-0 220.66625 52.415306)">32.5</text>
     </g>
    </g>
    <g id="ytick_14">
     <g id="line2d_21">
      <g>
       <use xlink:href="#m6d62659327" x="213.66625" y="34.317342" style="stroke: #000000; stroke-width: 0.8"/>
      </g>
     </g>
     <g id="text_26">
      <text style="font-size: 6px; font-family: 'Arial', 'Helvetica', 'DejaVu Sans', sans-serif; text-anchor: start; fill: #e53935" x="220.66625" y="36.464686" transform="rotate(-0 220.66625 36.464686)">35.0</text>
     </g>
    </g>
    <g id="text_27">
     <text style="font-size: 7px; font-family: 'Arial', 'Helvetica', 'DejaVu Sans', sans-serif; text-anchor: middle; fill: #e53935" x="241.438594" y="84.306586" transform="rotate(-90 241.438594 84.306586)">Mean RTT (ms)</text>
    </g>
   </g>
   <g id="patch_11">
    <path d="M 35.24625 144.614606 
L 35.24625 23.998566 
" style="fill: none; stroke: #000000; stroke-width: 0.8; stroke-linejoin: miter; stroke-linecap: square"/>
   </g>
   <g id="patch_12">
    <path d="M 35.24625 144.614606 
L 213.66625 144.614606 
" style="fill: none; stroke: #000000; stroke-width: 0.8; stroke-linejoin: miter; stroke-linecap: square"/>
   </g>
   <g id="text_28">
    <text style="font-size: 5px; font-family: 'Arial', 'Helvetica', 'DejaVu Sans', sans-serif; text-anchor: start; fill: #e53935" x="65.137393" y="26.573289" transform="rotate(-0 65.137393 26.573289)">36</text>
   </g>
   <g id="text_29">
    <text style="font-size: 5px; font-family: 'Arial', 'Helvetica', 'DejaVu Sans', sans-serif; text-anchor: start; fill: #e53935" x="111.48025" y="98.887022" transform="rotate(-0 111.48025 98.887022)">24</text>
   </g>
   <g id="text_30">
    <text style="font-size: 5px; font-family: 'Arial', 'Helvetica', 'DejaVu Sans', sans-serif; text-anchor: start; fill: #e53935" x="157.823107" y="136.058348" transform="rotate(-0 157.823107 136.058348)">19</text>
   </g>
   <g id="text_31">
    <text style="font-size: 5px; font-family: 'Arial', 'Helvetica', 'DejaVu Sans', sans-serif; text-anchor: start; fill: #e53935" x="204.165964" y="136.224235" transform="rotate(-0 204.165964 136.224235)">19</text>
   </g>
   <g id="line2d_22">
    <path d="M 54.941964 29.481114 
L 101.284821 101.794847 
L 147.627679 138.966173 
L 193.970536 139.132059 
" clip-path="url(#paf46d64524)" style="fill: none; stroke: #e53935; stroke-width: 1.2; stroke-linecap: square"/>
    <defs>
     <path id="m687953a717" d="M 0 3.535534 
L 3.535534 0 
L 0 -3.535534 
L -3.535534 0 
z
" style="stroke: #ffffff; stroke-width: 0.5; stroke-linejoin: miter"/>
    </defs>
    <g clip-path="url(#paf46d64524)">
     <use xlink:href="#m687953a717" x="54.941964" y="29.481114" style="fill: #e53935; stroke: #ffffff; stroke-width: 0.5; stroke-linejoin: miter"/>
     <use xlink:href="#m687953a717" x="101.284821" y="101.794847" style="fill: #e53935; stroke: #ffffff; stroke-width: 0.5; stroke-linejoin: miter"/>
     <use xlink:href="#m687953a717" x="147.627679" y="138.966173" style="fill: #e53935; stroke: #ffffff; stroke-width: 0.5; stroke-linejoin: miter"/>
     <use xlink:href="#m687953a717" x="193.970536" y="139.132059" style="fill: #e53935; stroke: #ffffff; stroke-width: 0.5; stroke-linejoin: miter"/>
    </g>
   </g>
  </g>
 </g>
 <defs>
  <clipPath id="paf46d64524">
   <rect x="35.24625" y="23.998566" width="178.42" height="120.61604"/>
  </clipPath>
 </defs>
 <defs>
  <pattern id="ha7f7ae333a" patternUnits="userSpaceOnUse" x="0" y="0" width="72" height="72">
   <rect x="0" y="0" width="73" height="73" fill="#b64342"/>
   <path d="M -36 36 
L 36 -36 
M -32 40 
L 40 -32 
M -28 44 
L 44 -28 
M -24 48 
L 48 -24 
M -20 52 
L 52 -20 
M -16 56 
L 56 -16 
M -12 60 
L 60 -12 
M -8 64 
L 64 -8 
M -4 68 
L 68 -4 
M 0 72 
L 72 0 
M 4 76 
L 76 4 
M 8 80 
L 80 8 
M 12 84 
L 84 12 
M 16 88 
L 88 16 
M 20 92 
L 92 20 
M 24 96 
L 96 24 
M 28 100 
L 100 28 
M 32 104 
L 104 32 
M 36 108 
L 108 36 
" style="fill: #ffffff; stroke: #ffffff; stroke-width: 0.6; stroke-linecap: butt; stroke-linejoin: miter"/>
  </pattern>
  <pattern id="hf0ab45ec56" patternUnits="userSpaceOnUse" x="0" y="0" width="72" height="72">
   <rect x="0" y="0" width="73" height="73" fill="#b64342"/>
   <path d="M -36 36 
L 36 -36 
M -32 40 
L 40 -32 
M -28 44 
L 44 -28 
M -24 48 
L 48 -24 
M -20 52 
L 52 -20 
M -16 56 
L 56 -16 
M -12 60 
L 60 -12 
M -8 64 
L 64 -8 
M -4 68 
L 68 -4 
M 0 72 
L 72 0 
M 4 76 
L 76 4 
M 8 80 
L 80 8 
M 12 84 
L 84 12 
M 16 88 
L 88 16 
M 20 92 
L 92 20 
M 24 96 
L 96 24 
M 28 100 
L 100 28 
M 32 104 
L 104 32 
M 36 108 
L 108 36 
" style="fill: #000000; stroke: #000000; stroke-width: 0.6; stroke-linecap: butt; stroke-linejoin: miter"/>
  </pattern>
 </defs>
</svg>
