<?xml version="1.0" encoding="utf-8" standalone="no"?>
<!DOCTYPE svg PUBLIC "-//W3C//DTD SVG 1.1//EN"
  "http://www.w3.org/Graphics/SVG/1.1/DTD/svg11.dtd">
<svg xmlns:xlink="http://www.w3.org/1999/xlink" width="504pt" height="288pt" viewBox="0 0 504 288" xmlns="http://www.w3.org/2000/svg" version="1.1">
 <metadata>
  <rdf:RDF xmlns:dc="http://purl.org/dc/elements/1.1/" xmlns:cc="http://creativecommons.org/ns#" xmlns:rdf="http://www.w3.org/1999/02/22-rdf-syntax-ns#">
   <cc:Work>
    <dc:type rdf:resource="http://purl.org/dc/dcmitype/StillImage"/>
    <dc:date>2026-05-17T16:45:41.494214</dc:date>
    <dc:format>image/svg+xml</dc:format>
    <dc:creator>
     <cc:Agent>
      <dc:title>Matplotlib v3.10.8, https://matplotlib.org/</dc:title>
     </cc:Agent>
    </dc:creator>
   </cc:Work>
  </rdf:RDF>
 </metadata>
 <defs>
  <style type="text/css">*{stroke-linejoin: round; stroke-linecap: butt}</style>
 </defs>
 <g id="figure_1">
  <g id="patch_1">
   <path d="M 0 288 
L 504 288 
L 504 0 
L 0 0 
z
" style="fill: #ffffff"/>
  </g>
  <g id="axes_1">
   <g id="patch_2">
    <path d="M 51.09125 240.79 
L 492.12 240.79 
L 492.12 28.2 
L 51.09125 28.2 
z
" style="fill: #ffffff"/>
   </g>
   <g id="FillBetweenPolyCollection_1">
    <defs>
     <path id="mf29406659e" d="M 75.592847 -56.453043 
L 75.592847 -73.090522 
L 173.599236 -110.062696 
L 271.605625 -147.959174 
L 369.612014 -180.309826 
L 467.618403 -219.130609 
L 467.618403 -56.453043 
L 467.618403 -56.453043 
L 369.612014 -56.453043 
L 271.605625 -56.453043 
L 173.599236 -56.453043 
L 75.592847 -56.453043 
z
" style="stroke: #2171b5; stroke-opacity: 0.15"/>
    </defs>
    <g clip-path="url(#p54193a3914)">
     <use xlink:href="#mf29406659e" x="0" y="288" style="fill: #2171b5; fill-opacity: 0.15; stroke: #2171b5; stroke-opacity: 0.15"/>
    </g>
   </g>
   <g id="matplotlib.axis_1">
    <g id="xtick_1">
     <g id="line2d_1">
      <defs>
       <path id="mc67497735d" d="M 0 0 
L 0 3.5 
" style="stroke: #000000; stroke-width: 0.8"/>
      </defs>
      <g>
       <use xlink:href="#mc67497735d" x="75.592847" y="240.79" style="stroke: #000000; stroke-width: 0.8"/>
      </g>
     </g>
     <g id="text_1">
      <!-- 10% -->
      <g transform="translate(65.027691 256.59) scale(0.11 -0.11)">
       <defs>
        <path id="NotoSerifSC-ExtraLight-31" d="M 525 0 
L 525 173 
L 1491 262 
L 1818 262 
L 2720 173 
L 2720 0 
L 525 0 
z
M 1440 0 
Q 1459 730 1459 1459 
L 1459 4333 
L 493 4160 
L 493 4346 
L 1773 4691 
L 1869 4614 
L 1843 3616 
L 1843 1459 
Q 1843 1101 1849 733 
Q 1856 365 1862 0 
L 1440 0 
z
" transform="scale(0.015625)"/>
        <path id="NotoSerifSC-ExtraLight-30" d="M 1734 -90 
Q 1370 -90 1043 153 
Q 717 397 512 928 
Q 307 1459 307 2323 
Q 307 3181 512 3709 
Q 717 4237 1043 4477 
Q 1370 4717 1734 4717 
Q 2106 4717 2429 4477 
Q 2752 4237 2953 3709 
Q 3155 3181 3155 2323 
Q 3155 1459 2953 928 
Q 2752 397 2429 153 
Q 2106 -90 1734 -90 
z
M 1734 102 
Q 1920 102 2102 214 
Q 2285 326 2429 582 
Q 2573 838 2659 1267 
Q 2746 1696 2746 2323 
Q 2746 2944 2659 3366 
Q 2573 3789 2429 4041 
Q 2285 4294 2102 4406 
Q 1920 4518 1734 4518 
Q 1542 4518 1363 4406 
Q 1184 4294 1040 4041 
Q 896 3789 809 3366 
Q 723 2944 723 2323 
Q 723 1696 809 1267 
Q 896 838 1040 582 
Q 1184 326 1363 214 
Q 1542 102 1734 102 
z
" transform="scale(0.015625)"/>
        <path id="NotoSerifSC-ExtraLight-25" d="M 1210 1856 
Q 979 1856 768 2000 
Q 557 2144 425 2457 
Q 294 2771 294 3270 
Q 294 3776 425 4089 
Q 557 4403 768 4547 
Q 979 4691 1210 4691 
Q 1446 4691 1651 4547 
Q 1856 4403 1987 4089 
Q 2118 3776 2118 3270 
Q 2118 2771 1987 2457 
Q 1856 2144 1651 2000 
Q 1446 1856 1210 1856 
z
M 1210 2016 
Q 1357 2016 1485 2125 
Q 1613 2234 1693 2509 
Q 1773 2784 1773 3270 
Q 1773 3763 1693 4035 
Q 1613 4307 1485 4416 
Q 1357 4525 1210 4525 
Q 1069 4525 937 4416 
Q 806 4307 726 4035 
Q 646 3763 646 3270 
Q 646 2784 726 2509 
Q 806 2234 937 2125 
Q 1069 2016 1210 2016 
z
M 4595 -64 
Q 4358 -64 4150 80 
Q 3942 224 3811 537 
Q 3680 851 3680 1357 
Q 3680 1862 3811 2172 
Q 3942 2483 4150 2627 
Q 4358 2771 4595 2771 
Q 4832 2771 5037 2627 
Q 5242 2483 5370 2172 
Q 5498 1862 5498 1357 
Q 5498 851 5370 537 
Q 5242 224 5037 80 
Q 4832 -64 4595 -64 
z
M 4595 102 
Q 4736 102 4864 211 
Q 4992 320 5075 592 
Q 5158 864 5158 1357 
Q 5158 1843 5075 2115 
Q 4992 2387 4864 2496 
Q 4736 2605 4595 2605 
Q 4454 2605 4323 2496 
Q 4192 2387 4109 2115 
Q 4026 1843 4026 1357 
Q 4026 864 4109 592 
Q 4192 320 4323 211 
Q 4454 102 4595 102 
z
M 1350 -166 
L 1197 -58 
L 4435 4621 
L 4589 4512 
L 1350 -166 
z
" transform="scale(0.015625)"/>
       </defs>
       <use xlink:href="#NotoSerifSC-ExtraLight-31"/>
       <use xlink:href="#NotoSerifSC-ExtraLight-30" transform="translate(47.299988 0)"/>
       <use xlink:href="#NotoSerifSC-ExtraLight-25" transform="translate(101.499985 0)"/>
      </g>
     </g>
    </g>
    <g id="xtick_2">
     <g id="line2d_2">
      <g>
       <use xlink:href="#mc67497735d" x="124.596042" y="240.79" style="stroke: #000000; stroke-width: 0.8"/>
      </g>
     </g>
     <g id="text_2">
      <!-- 20% -->
      <g transform="translate(113.63987 256.59) scale(0.11 -0.11)">
       <defs>
        <path id="NotoSerifSC-ExtraLight-32" d="M 416 0 
L 416 282 
Q 749 678 1062 1059 
Q 1376 1440 1613 1715 
Q 1952 2131 2160 2438 
Q 2368 2746 2464 3005 
Q 2560 3264 2560 3526 
Q 2560 4006 2313 4265 
Q 2067 4525 1619 4525 
Q 1434 4525 1248 4473 
Q 1062 4422 845 4282 
L 1094 4493 
L 909 3878 
Q 864 3731 803 3667 
Q 742 3603 646 3603 
Q 563 3603 505 3651 
Q 448 3699 422 3782 
Q 486 4096 678 4301 
Q 870 4506 1145 4611 
Q 1421 4717 1722 4717 
Q 2336 4717 2653 4406 
Q 2970 4096 2970 3526 
Q 2970 3245 2848 2973 
Q 2726 2701 2454 2352 
Q 2182 2003 1722 1491 
Q 1626 1389 1459 1197 
Q 1293 1005 1078 761 
Q 864 518 640 262 
L 691 448 
L 691 358 
L 3187 358 
L 3187 0 
L 416 0 
z
" transform="scale(0.015625)"/>
       </defs>
       <use xlink:href="#NotoSerifSC-ExtraLight-32"/>
       <use xlink:href="#NotoSerifSC-ExtraLight-30" transform="translate(54.399994 0)"/>
       <use xlink:href="#NotoSerifSC-ExtraLight-25" transform="translate(108.599991 0)"/>
      </g>
     </g>
    </g>
    <g id="xtick_3">
     <g id="line2d_3">
      <g>
       <use xlink:href="#mc67497735d" x="173.599236" y="240.79" style="stroke: #000000; stroke-width: 0.8"/>
      </g>
     </g>
     <g id="text_3">
      <!-- 30% -->
      <g transform="translate(162.654236 256.59) scale(0.11 -0.11)">
       <defs>
        <path id="NotoSerifSC-ExtraLight-33" d="M 1594 -90 
Q 1094 -90 758 121 
Q 422 333 307 755 
Q 339 838 396 883 
Q 454 928 538 928 
Q 634 928 691 867 
Q 749 806 794 659 
L 992 83 
L 762 301 
Q 928 205 1104 153 
Q 1280 102 1498 102 
Q 2042 102 2339 412 
Q 2637 723 2637 1229 
Q 2637 1747 2336 2035 
Q 2035 2323 1434 2323 
L 1133 2323 
L 1133 2541 
L 1402 2541 
Q 1875 2541 2185 2813 
Q 2496 3085 2496 3584 
Q 2496 4019 2265 4272 
Q 2035 4525 1600 4525 
Q 1408 4525 1232 4486 
Q 1056 4448 858 4339 
L 1101 4531 
L 915 3981 
Q 870 3840 812 3785 
Q 755 3731 646 3731 
Q 576 3731 518 3766 
Q 461 3802 435 3885 
Q 506 4186 691 4368 
Q 877 4550 1133 4633 
Q 1389 4717 1670 4717 
Q 2246 4717 2579 4409 
Q 2912 4102 2912 3597 
Q 2912 3302 2768 3049 
Q 2624 2797 2352 2624 
Q 2080 2451 1683 2400 
L 1683 2458 
Q 2138 2438 2438 2278 
Q 2739 2118 2892 1843 
Q 3046 1568 3046 1203 
Q 3046 813 2857 521 
Q 2669 230 2342 70 
Q 2016 -90 1594 -90 
z
" transform="scale(0.015625)"/>
       </defs>
       <use xlink:href="#NotoSerifSC-ExtraLight-33"/>
       <use xlink:href="#NotoSerifSC-ExtraLight-30" transform="translate(54.199997 0)"/>
       <use xlink:href="#NotoSerifSC-ExtraLight-25" transform="translate(108.399994 0)"/>
      </g>
     </g>
    </g>
    <g id="xtick_4">
     <g id="line2d_4">
      <g>
       <use xlink:href="#mc67497735d" x="222.602431" y="240.79" style="stroke: #000000; stroke-width: 0.8"/>
      </g>
     </g>
     <g id="text_4">
      <!-- 40% -->
      <g transform="translate(211.668602 256.59) scale(0.11 -0.11)">
       <defs>
        <path id="NotoSerifSC-ExtraLight-34" d="M 2176 -122 
L 2176 1370 
L 2176 1440 
L 2176 4365 
L 2112 4365 
L 2349 4480 
L 1382 2970 
L 403 1446 
L 448 1638 
L 448 1562 
L 3328 1562 
L 3328 1267 
L 218 1267 
L 218 1504 
L 2285 4698 
L 2547 4698 
L 2547 -122 
L 2176 -122 
z
" transform="scale(0.015625)"/>
       </defs>
       <use xlink:href="#NotoSerifSC-ExtraLight-34"/>
       <use xlink:href="#NotoSerifSC-ExtraLight-30" transform="translate(53.999985 0)"/>
       <use xlink:href="#NotoSerifSC-ExtraLight-25" transform="translate(108.199982 0)"/>
      </g>
     </g>
    </g>
    <g id="xtick_5">
     <g id="line2d_5">
      <g>
       <use xlink:href="#mc67497735d" x="271.605625" y="240.79" style="stroke: #000000; stroke-width: 0.8"/>
      </g>
     </g>
     <g id="text_5">
      <!-- 50% -->
      <g transform="translate(260.649453 256.59) scale(0.11 -0.11)">
       <defs>
        <path id="NotoSerifSC-ExtraLight-35" d="M 1536 -90 
Q 1056 -90 726 128 
Q 397 346 294 762 
Q 326 838 384 880 
Q 442 922 525 922 
Q 621 922 678 864 
Q 736 806 774 659 
L 973 102 
L 755 294 
Q 928 198 1094 150 
Q 1261 102 1491 102 
Q 2074 102 2381 438 
Q 2688 774 2688 1389 
Q 2688 1997 2381 2275 
Q 2074 2554 1568 2554 
Q 1350 2554 1158 2515 
Q 966 2477 800 2394 
L 646 2438 
L 794 4627 
L 2995 4627 
L 2995 4269 
L 890 4269 
L 998 4486 
L 864 2490 
L 691 2547 
Q 934 2682 1168 2736 
Q 1402 2790 1664 2790 
Q 2323 2790 2716 2438 
Q 3110 2086 3110 1408 
Q 3110 966 2918 630 
Q 2726 294 2374 102 
Q 2022 -90 1536 -90 
z
" transform="scale(0.015625)"/>
       </defs>
       <use xlink:href="#NotoSerifSC-ExtraLight-35"/>
       <use xlink:href="#NotoSerifSC-ExtraLight-30" transform="translate(54.399994 0)"/>
       <use xlink:href="#NotoSerifSC-ExtraLight-25" transform="translate(108.599991 0)"/>
      </g>
     </g>
    </g>
    <g id="xtick_6">
     <g id="line2d_6">
      <g>
       <use xlink:href="#mc67497735d" x="320.608819" y="240.79" style="stroke: #000000; stroke-width: 0.8"/>
      </g>
     </g>
     <g id="text_6">
      <!-- 60% -->
      <g transform="translate(309.652648 256.59) scale(0.11 -0.11)">
       <defs>
        <path id="NotoSerifSC-ExtraLight-36" d="M 1805 -90 
Q 1363 -90 1043 140 
Q 723 371 553 784 
Q 384 1197 384 1754 
Q 384 2304 566 2803 
Q 749 3302 1091 3705 
Q 1434 4109 1923 4374 
Q 2413 4640 3034 4717 
L 3059 4582 
Q 2310 4429 1808 4022 
Q 1306 3616 1056 3033 
Q 806 2451 806 1766 
Q 806 1005 1068 553 
Q 1331 102 1811 102 
Q 2074 102 2285 252 
Q 2496 403 2621 691 
Q 2746 979 2746 1376 
Q 2746 1946 2496 2250 
Q 2246 2554 1824 2554 
Q 1536 2554 1273 2422 
Q 1011 2291 742 1984 
L 627 2054 
L 666 2054 
Q 1184 2790 1939 2790 
Q 2317 2790 2589 2617 
Q 2861 2445 3005 2131 
Q 3149 1818 3149 1395 
Q 3149 966 2969 630 
Q 2790 294 2486 102 
Q 2182 -90 1805 -90 
z
" transform="scale(0.015625)"/>
       </defs>
       <use xlink:href="#NotoSerifSC-ExtraLight-36"/>
       <use xlink:href="#NotoSerifSC-ExtraLight-30" transform="translate(54.399994 0)"/>
       <use xlink:href="#NotoSerifSC-ExtraLight-25" transform="translate(108.599991 0)"/>
      </g>
     </g>
    </g>
    <g id="xtick_7">
     <g id="line2d_7">
      <g>
       <use xlink:href="#mc67497735d" x="369.612014" y="240.79" style="stroke: #000000; stroke-width: 0.8"/>
      </g>
     </g>
     <g id="text_7">
      <!-- 70% -->
      <g transform="translate(358.716858 256.59) scale(0.11 -0.11)">
       <defs>
        <path id="NotoSerifSC-ExtraLight-37" d="M 998 0 
L 954 38 
L 2835 4422 
L 2790 4179 
L 2790 4269 
L 346 4269 
L 346 4627 
L 3040 4627 
L 3040 4390 
L 1363 0 
L 998 0 
z
" transform="scale(0.015625)"/>
       </defs>
       <use xlink:href="#NotoSerifSC-ExtraLight-37"/>
       <use xlink:href="#NotoSerifSC-ExtraLight-30" transform="translate(53.299988 0)"/>
       <use xlink:href="#NotoSerifSC-ExtraLight-25" transform="translate(107.499985 0)"/>
      </g>
     </g>
    </g>
    <g id="xtick_8">
     <g id="line2d_8">
      <g>
       <use xlink:href="#mc67497735d" x="418.615208" y="240.79" style="stroke: #000000; stroke-width: 0.8"/>
      </g>
     </g>
     <g id="text_8">
      <!-- 80% -->
      <g transform="translate(407.659036 256.59) scale(0.11 -0.11)">
       <defs>
        <path id="NotoSerifSC-ExtraLight-38" d="M 1728 -90 
Q 1082 -90 726 217 
Q 371 525 371 1030 
Q 371 1472 665 1785 
Q 960 2099 1536 2355 
L 1536 2387 
L 1702 2291 
Q 1190 2029 963 1747 
Q 736 1466 736 1069 
Q 736 627 1001 364 
Q 1267 102 1734 102 
Q 2208 102 2473 355 
Q 2739 608 2739 1018 
Q 2739 1254 2630 1462 
Q 2522 1670 2266 1865 
Q 2010 2061 1562 2253 
Q 998 2496 758 2841 
Q 518 3187 518 3610 
Q 518 3949 684 4198 
Q 851 4448 1129 4582 
Q 1408 4717 1747 4717 
Q 2112 4717 2374 4582 
Q 2637 4448 2777 4211 
Q 2918 3974 2918 3661 
Q 2918 3315 2688 2982 
Q 2458 2650 1862 2394 
L 1862 2362 
L 1722 2451 
Q 2176 2701 2374 2982 
Q 2573 3264 2573 3667 
Q 2573 4006 2361 4262 
Q 2150 4518 1741 4518 
Q 1517 4518 1318 4419 
Q 1120 4320 1001 4131 
Q 883 3942 883 3680 
Q 883 3456 972 3248 
Q 1062 3040 1280 2854 
Q 1498 2669 1888 2502 
Q 2554 2208 2835 1878 
Q 3117 1549 3117 1088 
Q 3117 730 2941 464 
Q 2765 198 2451 54 
Q 2138 -90 1728 -90 
z
" transform="scale(0.015625)"/>
       </defs>
       <use xlink:href="#NotoSerifSC-ExtraLight-38"/>
       <use xlink:href="#NotoSerifSC-ExtraLight-30" transform="translate(54.399994 0)"/>
       <use xlink:href="#NotoSerifSC-ExtraLight-25" transform="translate(108.599991 0)"/>
      </g>
     </g>
    </g>
    <g id="xtick_9">
     <g id="line2d_9">
      <g>
       <use xlink:href="#mc67497735d" x="467.618403" y="240.79" style="stroke: #000000; stroke-width: 0.8"/>
      </g>
     </g>
     <g id="text_9">
      <!-- 90% -->
      <g transform="translate(456.640747 256.59) scale(0.11 -0.11)">
       <defs>
        <path id="NotoSerifSC-ExtraLight-39" d="M 672 -96 
L 621 64 
Q 1331 320 1798 733 
Q 2266 1146 2493 1686 
Q 2720 2227 2720 2867 
Q 2720 3411 2589 3779 
Q 2458 4147 2230 4336 
Q 2003 4525 1722 4525 
Q 1466 4525 1248 4384 
Q 1030 4243 899 3971 
Q 768 3699 768 3302 
Q 768 2739 1069 2425 
Q 1370 2112 1818 2112 
Q 2112 2112 2365 2253 
Q 2618 2394 2816 2669 
L 2938 2643 
L 2893 2643 
Q 2726 2285 2416 2080 
Q 2106 1875 1690 1875 
Q 1312 1875 1011 2048 
Q 710 2221 537 2534 
Q 365 2848 365 3277 
Q 365 3718 544 4041 
Q 723 4365 1033 4541 
Q 1344 4717 1734 4717 
Q 2150 4717 2464 4496 
Q 2778 4275 2954 3862 
Q 3130 3450 3130 2880 
Q 3130 2202 2858 1610 
Q 2586 1018 2042 576 
Q 1498 134 672 -96 
z
" transform="scale(0.015625)"/>
       </defs>
       <use xlink:href="#NotoSerifSC-ExtraLight-39"/>
       <use xlink:href="#NotoSerifSC-ExtraLight-30" transform="translate(54.799988 0)"/>
       <use xlink:href="#NotoSerifSC-ExtraLight-25" transform="translate(108.999985 0)"/>
      </g>
     </g>
    </g>
    <g id="text_10">
     <!-- Fault Prior -->
     <g transform="translate(240.50875 273.05) scale(0.12 -0.12)">
      <defs>
       <path id="NotoSerifSC-ExtraLight-46" d="M 358 0 
L 358 186 
L 1203 256 
L 1338 256 
L 2227 186 
L 2227 0 
L 358 0 
z
M 1037 0 
Q 1050 531 1050 1062 
Q 1050 1594 1050 2131 
L 1050 2496 
Q 1050 3034 1050 3568 
Q 1050 4102 1037 4627 
L 1491 4627 
Q 1485 4102 1481 3558 
Q 1478 3014 1478 2413 
L 1478 2285 
Q 1478 1632 1481 1081 
Q 1485 531 1491 0 
L 1037 0 
z
M 1267 2240 
L 1267 2451 
L 2816 2451 
L 2816 2240 
L 1267 2240 
z
M 2771 1562 
L 2688 2266 
L 2688 2426 
L 2771 3117 
L 2976 3117 
L 2976 1562 
L 2771 1562 
z
M 358 4442 
L 358 4627 
L 1267 4627 
L 1267 4378 
L 1203 4378 
L 358 4442 
z
M 3507 3507 
L 3328 4576 
L 3552 4410 
L 1267 4410 
L 1267 4627 
L 3699 4627 
L 3750 3507 
L 3507 3507 
z
" transform="scale(0.015625)"/>
       <path id="NotoSerifSC-ExtraLight-61" d="M 1222 -90 
Q 851 -90 601 121 
Q 352 333 352 730 
Q 352 966 457 1155 
Q 563 1344 803 1497 
Q 1043 1651 1440 1766 
Q 1715 1850 2000 1923 
Q 2285 1997 2541 2054 
L 2541 1901 
Q 2285 1837 2019 1760 
Q 1754 1683 1517 1594 
Q 1088 1440 918 1241 
Q 749 1043 749 800 
Q 749 499 921 345 
Q 1094 192 1376 192 
Q 1536 192 1686 253 
Q 1837 314 2025 461 
Q 2214 608 2470 858 
L 2509 570 
L 2387 570 
Q 2182 352 2003 205 
Q 1824 58 1638 -16 
Q 1453 -90 1222 -90 
z
M 2899 -83 
Q 2630 -83 2499 112 
Q 2368 307 2355 653 
L 2355 678 
L 2355 2240 
Q 2355 2605 2272 2800 
Q 2189 2995 2022 3072 
Q 1856 3149 1600 3149 
Q 1408 3149 1216 3091 
Q 1024 3034 819 2906 
L 1050 3085 
L 928 2573 
Q 902 2445 838 2393 
Q 774 2342 672 2342 
Q 474 2342 435 2541 
Q 544 2918 870 3129 
Q 1197 3341 1683 3341 
Q 2208 3341 2470 3088 
Q 2733 2835 2733 2266 
L 2733 723 
Q 2733 390 2809 275 
Q 2886 160 3027 160 
Q 3110 160 3174 192 
Q 3238 224 3315 294 
L 3411 192 
Q 3315 51 3184 -16 
Q 3053 -83 2899 -83 
z
" transform="scale(0.015625)"/>
       <path id="NotoSerifSC-ExtraLight-75" d="M 1683 -90 
Q 1235 -90 995 192 
Q 755 474 762 1184 
L 774 3059 
L 896 2963 
L 224 3046 
L 224 3213 
L 1114 3290 
L 1178 3213 
L 1152 2413 
L 1152 1203 
Q 1152 659 1325 438 
Q 1498 218 1830 218 
Q 2138 218 2429 390 
Q 2720 563 2963 877 
L 3085 659 
L 2970 659 
Q 2720 326 2400 118 
Q 2080 -90 1683 -90 
z
M 2944 -51 
L 2925 742 
L 2925 749 
L 2931 2989 
L 2387 3040 
L 2387 3213 
L 3270 3290 
L 3334 3213 
L 3309 2413 
L 3309 224 
L 3814 173 
L 3814 0 
L 2944 -51 
z
" transform="scale(0.015625)"/>
       <path id="NotoSerifSC-ExtraLight-6c" d="M 224 0 
L 224 173 
L 986 243 
L 1107 243 
L 1862 173 
L 1862 0 
L 224 0 
z
M 838 0 
Q 845 192 848 441 
Q 851 691 854 956 
Q 858 1222 858 1446 
L 858 4749 
L 269 4774 
L 269 4947 
L 1171 5120 
L 1267 5062 
L 1248 4077 
L 1248 1446 
Q 1248 1222 1251 956 
Q 1254 691 1257 441 
Q 1261 192 1267 0 
L 838 0 
z
" transform="scale(0.015625)"/>
       <path id="NotoSerifSC-ExtraLight-74" d="M 954 3021 
L 954 3251 
L 2106 3251 
L 2106 3021 
L 954 3021 
z
M 1485 -90 
Q 1107 -90 931 112 
Q 755 314 755 717 
Q 755 864 758 976 
Q 762 1088 762 1254 
L 762 3021 
L 90 3021 
L 90 3213 
L 890 3270 
L 762 3174 
L 909 4243 
L 1184 4243 
L 1152 3155 
L 1152 3078 
L 1152 736 
Q 1152 429 1264 291 
Q 1376 154 1594 154 
Q 1741 154 1853 192 
Q 1965 230 2093 301 
L 2182 186 
Q 2054 51 1881 -19 
Q 1709 -90 1485 -90 
z
" transform="scale(0.015625)"/>
       <path id="NotoSerifSC-ExtraLight-20" transform="scale(0.015625)"/>
       <path id="NotoSerifSC-ExtraLight-50" d="M 358 0 
L 358 186 
L 1203 256 
L 1338 256 
L 2227 186 
L 2227 0 
L 358 0 
z
M 1037 0 
Q 1050 531 1050 1062 
Q 1050 1594 1050 2131 
L 1050 2496 
Q 1050 3034 1050 3568 
Q 1050 4102 1037 4627 
L 1491 4627 
Q 1485 4102 1481 3568 
Q 1478 3034 1478 2496 
L 1478 2048 
Q 1478 1562 1481 1046 
Q 1485 531 1491 0 
L 1037 0 
z
M 1267 1907 
L 1267 2106 
L 1888 2106 
Q 2406 2106 2726 2256 
Q 3046 2406 3190 2675 
Q 3334 2944 3334 3290 
Q 3334 3840 3033 4131 
Q 2733 4422 2080 4422 
L 1267 4422 
L 1267 4627 
L 2138 4627 
Q 2957 4627 3360 4265 
Q 3763 3904 3763 3290 
Q 3763 2899 3568 2585 
Q 3373 2272 2960 2089 
Q 2547 1907 1901 1907 
L 1267 1907 
z
M 358 4442 
L 358 4627 
L 1267 4627 
L 1267 4378 
L 1203 4378 
L 358 4442 
z
" transform="scale(0.015625)"/>
       <path id="NotoSerifSC-ExtraLight-72" d="M 282 0 
L 282 173 
L 992 250 
L 1139 250 
L 1869 173 
L 1869 0 
L 282 0 
z
M 838 0 
Q 845 154 848 413 
Q 851 672 854 953 
Q 858 1235 858 1446 
L 858 1798 
Q 858 2131 854 2403 
Q 851 2675 838 2912 
L 250 2938 
L 250 3104 
L 1126 3322 
L 1210 3270 
L 1248 2374 
L 1248 2368 
L 1248 1446 
Q 1248 1235 1251 953 
Q 1254 672 1257 413 
Q 1261 154 1267 0 
L 838 0 
z
M 1242 2035 
L 1133 2349 
L 1222 2349 
Q 1325 2643 1497 2867 
Q 1670 3091 1884 3216 
Q 2099 3341 2330 3341 
Q 2502 3341 2633 3277 
Q 2765 3213 2810 3110 
Q 2810 2957 2739 2873 
Q 2669 2790 2515 2790 
Q 2413 2790 2326 2841 
Q 2240 2893 2131 2995 
L 1984 3123 
L 2298 3123 
Q 1939 3053 1683 2790 
Q 1427 2528 1242 2035 
z
" transform="scale(0.015625)"/>
       <path id="NotoSerifSC-ExtraLight-69" d="M 288 0 
L 288 173 
L 998 243 
L 1120 243 
L 1792 173 
L 1792 0 
L 288 0 
z
M 851 0 
Q 858 154 864 413 
Q 870 672 873 953 
Q 877 1235 877 1446 
L 877 1798 
Q 877 2125 870 2400 
Q 864 2675 851 2918 
L 256 2938 
L 256 3104 
L 1197 3322 
L 1274 3270 
L 1261 2413 
L 1261 1446 
Q 1261 1235 1264 953 
Q 1267 672 1270 413 
Q 1274 154 1280 0 
L 851 0 
z
M 1011 4192 
Q 877 4192 784 4278 
Q 691 4365 691 4506 
Q 691 4646 784 4736 
Q 877 4826 1011 4826 
Q 1139 4826 1238 4736 
Q 1338 4646 1338 4506 
Q 1338 4365 1238 4278 
Q 1139 4192 1011 4192 
z
" transform="scale(0.015625)"/>
       <path id="NotoSerifSC-ExtraLight-6f" d="M 1869 -90 
Q 1478 -90 1126 96 
Q 774 282 553 662 
Q 333 1043 333 1619 
Q 333 2195 557 2579 
Q 781 2963 1133 3152 
Q 1485 3341 1869 3341 
Q 2259 3341 2611 3152 
Q 2963 2963 3187 2579 
Q 3411 2195 3411 1619 
Q 3411 1043 3187 662 
Q 2963 282 2611 96 
Q 2259 -90 1869 -90 
z
M 1869 102 
Q 2381 102 2678 496 
Q 2976 890 2976 1613 
Q 2976 2336 2678 2739 
Q 2381 3142 1869 3142 
Q 1357 3142 1059 2739 
Q 762 2336 762 1613 
Q 762 890 1059 496 
Q 1357 102 1869 102 
z
" transform="scale(0.015625)"/>
      </defs>
      <use xlink:href="#NotoSerifSC-ExtraLight-46"/>
      <use xlink:href="#NotoSerifSC-ExtraLight-61" transform="translate(62.199997 0)"/>
      <use xlink:href="#NotoSerifSC-ExtraLight-75" transform="translate(116.799988 0)"/>
      <use xlink:href="#NotoSerifSC-ExtraLight-6c" transform="translate(181.099976 0)"/>
      <use xlink:href="#NotoSerifSC-ExtraLight-74" transform="translate(213.699966 0)"/>
      <use xlink:href="#NotoSerifSC-ExtraLight-20" transform="translate(249.399963 0)"/>
      <use xlink:href="#NotoSerifSC-ExtraLight-50" transform="translate(275.299957 0)"/>
      <use xlink:href="#NotoSerifSC-ExtraLight-72" transform="translate(338.099945 0)"/>
      <use xlink:href="#NotoSerifSC-ExtraLight-69" transform="translate(382.699936 0)"/>
      <use xlink:href="#NotoSerifSC-ExtraLight-6f" transform="translate(415.199921 0)"/>
      <use xlink:href="#NotoSerifSC-ExtraLight-72" transform="translate(473.699905 0)"/>
     </g>
    </g>
   </g>
   <g id="matplotlib.axis_2">
    <g id="ytick_1">
     <g id="line2d_10">
      <defs>
       <path id="m7acec6974b" d="M 0 0 
L -3.5 0 
" style="stroke: #000000; stroke-width: 0.8"/>
      </defs>
      <g>
       <use xlink:href="#m7acec6974b" x="51.09125" y="231.546957" style="stroke: #000000; stroke-width: 0.8"/>
      </g>
     </g>
     <g id="text_11">
      <!-- 0.0 -->
      <g transform="translate(28.613906 235.946957) scale(0.11 -0.11)">
       <defs>
        <path id="NotoSerifSC-ExtraLight-2e" d="M 1030 -90 
Q 883 -90 787 12 
Q 691 115 691 250 
Q 691 397 787 493 
Q 883 589 1030 589 
Q 1178 589 1277 493 
Q 1376 397 1376 250 
Q 1376 115 1277 12 
Q 1178 -90 1030 -90 
z
" transform="scale(0.015625)"/>
       </defs>
       <use xlink:href="#NotoSerifSC-ExtraLight-30"/>
       <use xlink:href="#NotoSerifSC-ExtraLight-2e" transform="translate(54.199997 0)"/>
       <use xlink:href="#NotoSerifSC-ExtraLight-30" transform="translate(86.499985 0)"/>
      </g>
     </g>
    </g>
    <g id="ytick_2">
     <g id="line2d_11">
      <g>
       <use xlink:href="#m7acec6974b" x="51.09125" y="194.574783" style="stroke: #000000; stroke-width: 0.8"/>
      </g>
     </g>
     <g id="text_12">
      <!-- 0.2 -->
      <g transform="translate(28.591563 198.974783) scale(0.11 -0.11)">
       <use xlink:href="#NotoSerifSC-ExtraLight-30"/>
       <use xlink:href="#NotoSerifSC-ExtraLight-2e" transform="translate(54.199997 0)"/>
       <use xlink:href="#NotoSerifSC-ExtraLight-32" transform="translate(86.499985 0)"/>
      </g>
     </g>
    </g>
    <g id="ytick_3">
     <g id="line2d_12">
      <g>
       <use xlink:href="#m7acec6974b" x="51.09125" y="157.602609" style="stroke: #000000; stroke-width: 0.8"/>
      </g>
     </g>
     <g id="text_13">
      <!-- 0.4 -->
      <g transform="translate(28.63625 162.002609) scale(0.11 -0.11)">
       <use xlink:href="#NotoSerifSC-ExtraLight-30"/>
       <use xlink:href="#NotoSerifSC-ExtraLight-2e" transform="translate(54.199997 0)"/>
       <use xlink:href="#NotoSerifSC-ExtraLight-34" transform="translate(86.499985 0)"/>
      </g>
     </g>
    </g>
    <g id="ytick_4">
     <g id="line2d_13">
      <g>
       <use xlink:href="#m7acec6974b" x="51.09125" y="120.630435" style="stroke: #000000; stroke-width: 0.8"/>
      </g>
     </g>
     <g id="text_14">
      <!-- 0.6 -->
      <g transform="translate(28.591563 125.030435) scale(0.11 -0.11)">
       <use xlink:href="#NotoSerifSC-ExtraLight-30"/>
       <use xlink:href="#NotoSerifSC-ExtraLight-2e" transform="translate(54.199997 0)"/>
       <use xlink:href="#NotoSerifSC-ExtraLight-36" transform="translate(86.499985 0)"/>
      </g>
     </g>
    </g>
    <g id="ytick_5">
     <g id="line2d_14">
      <g>
       <use xlink:href="#m7acec6974b" x="51.09125" y="83.658261" style="stroke: #000000; stroke-width: 0.8"/>
      </g>
     </g>
     <g id="text_15">
      <!-- 0.8 -->
      <g transform="translate(28.591563 88.058261) scale(0.11 -0.11)">
       <use xlink:href="#NotoSerifSC-ExtraLight-30"/>
       <use xlink:href="#NotoSerifSC-ExtraLight-2e" transform="translate(54.199997 0)"/>
       <use xlink:href="#NotoSerifSC-ExtraLight-38" transform="translate(86.499985 0)"/>
      </g>
     </g>
    </g>
    <g id="ytick_6">
     <g id="line2d_15">
      <g>
       <use xlink:href="#m7acec6974b" x="51.09125" y="46.686087" style="stroke: #000000; stroke-width: 0.8"/>
      </g>
     </g>
     <g id="text_16">
      <!-- 1.0 -->
      <g transform="translate(29.373594 51.086087) scale(0.11 -0.11)">
       <use xlink:href="#NotoSerifSC-ExtraLight-31"/>
       <use xlink:href="#NotoSerifSC-ExtraLight-2e" transform="translate(47.299988 0)"/>
       <use xlink:href="#NotoSerifSC-ExtraLight-30" transform="translate(79.599976 0)"/>
      </g>
     </g>
    </g>
    <g id="text_17">
     <!-- SAFE Ratio -->
     <g transform="translate(21.471562 166.312813) rotate(-90) scale(0.12 -0.12)">
      <defs>
       <path id="NotoSerifSC-ExtraLight-53" d="M 1658 -96 
Q 1261 -96 912 16 
Q 563 128 346 269 
L 378 1190 
L 614 1190 
L 762 198 
L 512 326 
L 493 518 
Q 800 288 1046 205 
Q 1293 122 1638 122 
Q 2170 122 2506 362 
Q 2842 602 2842 1088 
Q 2842 1325 2752 1501 
Q 2662 1677 2448 1824 
Q 2234 1971 1856 2118 
L 1594 2227 
Q 1043 2451 758 2764 
Q 474 3078 474 3546 
Q 474 3942 669 4204 
Q 864 4467 1187 4598 
Q 1510 4730 1894 4730 
Q 2259 4730 2518 4640 
Q 2778 4550 3014 4384 
L 2989 3514 
L 2739 3514 
L 2592 4467 
L 2842 4339 
L 2848 4154 
Q 2611 4346 2396 4426 
Q 2182 4506 1901 4506 
Q 1446 4506 1145 4288 
Q 845 4070 845 3635 
Q 845 3264 1069 3040 
Q 1293 2816 1677 2656 
L 1958 2547 
Q 2445 2349 2720 2150 
Q 2995 1952 3107 1718 
Q 3219 1485 3219 1165 
Q 3219 774 3020 489 
Q 2822 205 2470 54 
Q 2118 -96 1658 -96 
z
" transform="scale(0.015625)"/>
       <path id="NotoSerifSC-ExtraLight-41" d="M 70 0 
L 70 186 
L 698 250 
L 806 250 
L 1498 186 
L 1498 0 
L 70 0 
z
M 544 0 
L 2093 4672 
L 2368 4672 
L 3942 0 
L 3507 0 
L 2074 4365 
L 2202 4365 
L 2176 4275 
L 794 0 
L 544 0 
z
M 1229 1613 
L 1242 1811 
L 3155 1811 
L 3168 1613 
L 1229 1613 
z
M 2694 0 
L 2694 186 
L 3546 250 
L 3674 250 
L 4486 186 
L 4486 0 
L 2694 0 
z
" transform="scale(0.015625)"/>
       <path id="NotoSerifSC-ExtraLight-45" d="M 358 0 
L 358 186 
L 1203 256 
L 1267 256 
L 1267 0 
L 358 0 
z
M 1037 0 
Q 1050 531 1050 1062 
Q 1050 1594 1050 2131 
L 1050 2496 
Q 1050 3034 1050 3568 
Q 1050 4102 1037 4627 
L 1491 4627 
Q 1485 4102 1481 3558 
Q 1478 3014 1478 2413 
L 1478 2285 
Q 1478 1632 1481 1081 
Q 1485 531 1491 0 
L 1037 0 
z
M 1267 0 
L 1267 211 
L 3642 211 
L 3430 70 
L 3603 1126 
L 3853 1126 
L 3795 0 
L 1267 0 
z
M 1267 2240 
L 1267 2451 
L 2790 2451 
L 2790 2240 
L 1267 2240 
z
M 2758 1581 
L 2675 2291 
L 2675 2426 
L 2758 3117 
L 2957 3117 
L 2957 1581 
L 2758 1581 
z
M 358 4442 
L 358 4627 
L 1267 4627 
L 1267 4378 
L 1203 4378 
L 358 4442 
z
M 3494 3507 
L 3322 4570 
L 3539 4410 
L 1267 4410 
L 1267 4627 
L 3686 4627 
L 3744 3507 
L 3494 3507 
z
" transform="scale(0.015625)"/>
       <path id="NotoSerifSC-ExtraLight-52" d="M 358 0 
L 358 186 
L 1203 256 
L 1325 256 
L 2176 186 
L 2176 0 
L 358 0 
z
M 1037 0 
Q 1050 531 1050 1062 
Q 1050 1594 1050 2131 
L 1050 2496 
Q 1050 3034 1050 3568 
Q 1050 4102 1037 4627 
L 1491 4627 
Q 1478 4102 1475 3548 
Q 1472 2995 1472 2310 
L 1472 2195 
Q 1472 1613 1475 1072 
Q 1478 531 1491 0 
L 1037 0 
z
M 3878 -51 
Q 3590 -51 3465 35 
Q 3341 122 3290 307 
L 2931 1453 
Q 2854 1722 2752 1875 
Q 2650 2029 2477 2096 
Q 2304 2163 2010 2163 
L 1267 2163 
L 1267 2355 
L 2208 2355 
Q 2566 2355 2828 2496 
Q 3091 2637 3235 2880 
Q 3379 3123 3379 3424 
Q 3379 3885 3091 4153 
Q 2803 4422 2189 4422 
L 1267 4422 
L 1267 4627 
L 2221 4627 
Q 2976 4627 3385 4316 
Q 3795 4006 3795 3424 
Q 3795 3104 3635 2838 
Q 3475 2573 3168 2403 
Q 2861 2234 2419 2202 
L 2419 2259 
Q 2701 2234 2870 2144 
Q 3040 2054 3145 1888 
Q 3251 1722 3334 1459 
L 3776 128 
L 3590 237 
L 4371 186 
L 4371 0 
Q 4288 -19 4163 -35 
Q 4038 -51 3878 -51 
z
M 358 4442 
L 358 4627 
L 1267 4627 
L 1267 4378 
L 1203 4378 
L 358 4442 
z
" transform="scale(0.015625)"/>
      </defs>
      <use xlink:href="#NotoSerifSC-ExtraLight-53"/>
      <use xlink:href="#NotoSerifSC-ExtraLight-41" transform="translate(55.499985 0)"/>
      <use xlink:href="#NotoSerifSC-ExtraLight-46" transform="translate(126.199966 0)"/>
      <use xlink:href="#NotoSerifSC-ExtraLight-45" transform="translate(188.399963 0)"/>
      <use xlink:href="#NotoSerifSC-ExtraLight-20" transform="translate(252.999954 0)"/>
      <use xlink:href="#NotoSerifSC-ExtraLight-52" transform="translate(278.899948 0)"/>
      <use xlink:href="#NotoSerifSC-ExtraLight-61" transform="translate(348.999939 0)"/>
      <use xlink:href="#NotoSerifSC-ExtraLight-74" transform="translate(403.59993 0)"/>
      <use xlink:href="#NotoSerifSC-ExtraLight-69" transform="translate(439.299927 0)"/>
      <use xlink:href="#NotoSerifSC-ExtraLight-6f" transform="translate(471.799911 0)"/>
     </g>
    </g>
   </g>
   <g id="line2d_16">
    <path d="M 75.592847 214.909478 
L 173.599236 177.937304 
L 271.605625 140.040826 
L 369.612014 107.690174 
L 467.618403 68.869391 
" clip-path="url(#p54193a3914)" style="fill: none; stroke: #2171b5; stroke-width: 2; stroke-linecap: square"/>
    <defs>
     <path id="m8256c165ce" d="M 0 4 
C 1.060812 4 2.078319 3.578535 2.828427 2.828427 
C 3.578535 2.078319 4 1.060812 4 0 
C 4 -1.060812 3.578535 -2.078319 2.828427 -2.828427 
C 2.078319 -3.578535 1.060812 -4 0 -4 
C -1.060812 -4 -2.078319 -3.578535 -2.828427 -2.828427 
C -3.578535 -2.078319 -4 -1.060812 -4 0 
C -4 1.060812 -3.578535 2.078319 -2.828427 2.828427 
C -2.078319 3.578535 -1.060812 4 0 4 
z
" style="stroke: #2171b5"/>
    </defs>
    <g clip-path="url(#p54193a3914)">
     <use xlink:href="#m8256c165ce" x="75.592847" y="214.909478" style="fill: #2171b5; stroke: #2171b5"/>
     <use xlink:href="#m8256c165ce" x="173.599236" y="177.937304" style="fill: #2171b5; stroke: #2171b5"/>
     <use xlink:href="#m8256c165ce" x="271.605625" y="140.040826" style="fill: #2171b5; stroke: #2171b5"/>
     <use xlink:href="#m8256c165ce" x="369.612014" y="107.690174" style="fill: #2171b5; stroke: #2171b5"/>
     <use xlink:href="#m8256c165ce" x="467.618403" y="68.869391" style="fill: #2171b5; stroke: #2171b5"/>
    </g>
   </g>
   <g id="line2d_17">
    <path d="M 75.592847 231.546957 
L 173.599236 231.546957 
L 271.605625 231.546957 
L 369.612014 231.546957 
L 467.618403 231.546957 
" clip-path="url(#p54193a3914)" style="fill: none; stroke-dasharray: 7.4,3.2; stroke-dashoffset: 0; stroke: #cb181d; stroke-width: 2"/>
    <defs>
     <path id="m14d1329045" d="M -4 4 
L 4 4 
L 4 -4 
L -4 -4 
z
" style="stroke: #cb181d; stroke-linejoin: miter"/>
    </defs>
    <g clip-path="url(#p54193a3914)">
     <use xlink:href="#m14d1329045" x="75.592847" y="231.546957" style="fill: #cb181d; stroke: #cb181d; stroke-linejoin: miter"/>
     <use xlink:href="#m14d1329045" x="173.599236" y="231.546957" style="fill: #cb181d; stroke: #cb181d; stroke-linejoin: miter"/>
     <use xlink:href="#m14d1329045" x="271.605625" y="231.546957" style="fill: #cb181d; stroke: #cb181d; stroke-linejoin: miter"/>
     <use xlink:href="#m14d1329045" x="369.612014" y="231.546957" style="fill: #cb181d; stroke: #cb181d; stroke-linejoin: miter"/>
     <use xlink:href="#m14d1329045" x="467.618403" y="231.546957" style="fill: #cb181d; stroke: #cb181d; stroke-linejoin: miter"/>
    </g>
   </g>
   <g id="patch_3">
    <path d="M 51.09125 240.79 
L 51.09125 28.2 
" style="fill: none; stroke: #000000; stroke-width: 0.8; stroke-linejoin: miter; stroke-linecap: square"/>
   </g>
   <g id="patch_4">
    <path d="M 51.09125 240.79 
L 492.12 240.79 
" style="fill: none; stroke: #000000; stroke-width: 0.8; stroke-linejoin: miter; stroke-linecap: square"/>
   </g>
   <g id="text_18">
    <!-- Fig.10  SAFE Ratio vs Fault Prior -->
    <g transform="translate(171.765625 22.2) scale(0.13 -0.13)">
     <defs>
      <path id="NotoSerifSC-ExtraLight-67" d="M 1574 -1664 
Q 1126 -1664 844 -1555 
Q 563 -1446 428 -1257 
Q 294 -1069 294 -819 
Q 294 -512 508 -301 
Q 723 -90 1133 83 
L 1171 19 
Q 896 -173 771 -339 
Q 646 -506 646 -749 
Q 646 -1094 892 -1270 
Q 1139 -1446 1600 -1446 
Q 2272 -1446 2617 -1206 
Q 2963 -966 2963 -621 
Q 2963 -390 2803 -230 
Q 2643 -70 2214 -70 
L 1408 -70 
Q 1299 -70 1196 -64 
Q 1094 -58 1005 -32 
L 1005 -19 
Q 525 96 525 525 
Q 525 723 646 896 
Q 768 1069 1037 1286 
L 1037 1344 
L 1190 1267 
Q 1005 1088 918 963 
Q 832 838 832 672 
Q 832 506 947 397 
Q 1062 288 1325 288 
L 2266 288 
Q 2618 288 2851 195 
Q 3085 102 3203 -80 
Q 3322 -262 3322 -531 
Q 3322 -813 3123 -1075 
Q 2925 -1338 2537 -1501 
Q 2150 -1664 1574 -1664 
z
M 1645 1075 
Q 1286 1075 1017 1216 
Q 749 1357 601 1609 
Q 454 1862 454 2208 
Q 454 2726 784 3033 
Q 1114 3341 1645 3341 
Q 1914 3341 2134 3264 
Q 2355 3187 2502 3040 
L 2515 3027 
Q 2835 2739 2835 2208 
Q 2835 1862 2684 1609 
Q 2534 1357 2265 1216 
Q 1997 1075 1645 1075 
z
M 1638 1261 
Q 2010 1261 2237 1526 
Q 2464 1792 2464 2214 
Q 2464 2637 2237 2896 
Q 2010 3155 1651 3155 
Q 1280 3155 1056 2892 
Q 832 2630 832 2208 
Q 832 1786 1053 1523 
Q 1274 1261 1638 1261 
z
M 2317 2950 
L 2317 3059 
L 2355 3059 
L 3238 3315 
L 3341 3245 
L 3341 2938 
L 2317 2950 
z
" transform="scale(0.015625)"/>
      <path id="NotoSerifSC-ExtraLight-76" d="M 1619 -38 
L 314 3251 
L 762 3251 
L 1862 307 
L 1766 307 
L 1798 384 
L 2816 3251 
L 3053 3251 
L 1824 -38 
L 1619 -38 
z
M -51 3066 
L -51 3251 
L 1440 3251 
L 1440 3066 
L 730 3008 
L 582 3008 
L -51 3066 
z
M 2144 3066 
L 2144 3251 
L 3411 3251 
L 3411 3066 
L 2893 3008 
L 2790 3008 
L 2144 3066 
z
" transform="scale(0.015625)"/>
      <path id="NotoSerifSC-ExtraLight-73" d="M 1389 -90 
Q 1094 -90 860 -29 
Q 627 32 371 147 
L 358 877 
L 602 877 
L 736 109 
L 531 115 
L 531 346 
Q 704 230 902 166 
Q 1101 102 1389 102 
Q 1830 102 2051 284 
Q 2272 467 2272 742 
Q 2272 986 2121 1136 
Q 1971 1286 1574 1414 
L 1254 1536 
Q 877 1677 653 1888 
Q 429 2099 429 2445 
Q 429 2822 720 3081 
Q 1011 3341 1555 3341 
Q 1837 3341 2051 3273 
Q 2266 3206 2496 3059 
L 2477 2406 
L 2253 2406 
L 2138 3104 
L 2310 3091 
L 2310 2880 
Q 2112 3021 1926 3081 
Q 1741 3142 1549 3142 
Q 1165 3142 976 2976 
Q 787 2810 787 2554 
Q 787 2304 947 2160 
Q 1107 2016 1453 1894 
L 1760 1779 
Q 2240 1606 2438 1385 
Q 2637 1165 2637 845 
Q 2637 595 2499 380 
Q 2362 166 2086 38 
Q 1811 -90 1389 -90 
z
" transform="scale(0.015625)"/>
     </defs>
     <use xlink:href="#NotoSerifSC-ExtraLight-46"/>
     <use xlink:href="#NotoSerifSC-ExtraLight-69" transform="translate(62.199997 0)"/>
     <use xlink:href="#NotoSerifSC-ExtraLight-67" transform="translate(94.699982 0)"/>
     <use xlink:href="#NotoSerifSC-ExtraLight-2e" transform="translate(150.099976 0)"/>
     <use xlink:href="#NotoSerifSC-ExtraLight-31" transform="translate(182.399963 0)"/>
     <use xlink:href="#NotoSerifSC-ExtraLight-30" transform="translate(229.699951 0)"/>
     <use xlink:href="#NotoSerifSC-ExtraLight-20" transform="translate(283.899948 0)"/>
     <use xlink:href="#NotoSerifSC-ExtraLight-20" transform="translate(309.799942 0)"/>
     <use xlink:href="#NotoSerifSC-ExtraLight-53" transform="translate(335.699936 0)"/>
     <use xlink:href="#NotoSerifSC-ExtraLight-41" transform="translate(391.199921 0)"/>
     <use xlink:href="#NotoSerifSC-ExtraLight-46" transform="translate(461.899902 0)"/>
     <use xlink:href="#NotoSerifSC-ExtraLight-45" transform="translate(524.099899 0)"/>
     <use xlink:href="#NotoSerifSC-ExtraLight-20" transform="translate(588.69989 0)"/>
     <use xlink:href="#NotoSerifSC-ExtraLight-52" transform="translate(614.599884 0)"/>
     <use xlink:href="#NotoSerifSC-ExtraLight-61" transform="translate(684.699875 0)"/>
     <use xlink:href="#NotoSerifSC-ExtraLight-74" transform="translate(739.299866 0)"/>
     <use xlink:href="#NotoSerifSC-ExtraLight-69" transform="translate(774.999863 0)"/>
     <use xlink:href="#NotoSerifSC-ExtraLight-6f" transform="translate(807.499847 0)"/>
     <use xlink:href="#NotoSerifSC-ExtraLight-20" transform="translate(865.999832 0)"/>
     <use xlink:href="#NotoSerifSC-ExtraLight-76" transform="translate(891.899826 0)"/>
     <use xlink:href="#NotoSerifSC-ExtraLight-73" transform="translate(945.499817 0)"/>
     <use xlink:href="#NotoSerifSC-ExtraLight-20" transform="translate(991.799805 0)"/>
     <use xlink:href="#NotoSerifSC-ExtraLight-46" transform="translate(1017.699799 0)"/>
     <use xlink:href="#NotoSerifSC-ExtraLight-61" transform="translate(1079.899796 0)"/>
     <use xlink:href="#NotoSerifSC-ExtraLight-75" transform="translate(1134.499786 0)"/>
     <use xlink:href="#NotoSerifSC-ExtraLight-6c" transform="translate(1198.799774 0)"/>
     <use xlink:href="#NotoSerifSC-ExtraLight-74" transform="translate(1231.399765 0)"/>
     <use xlink:href="#NotoSerifSC-ExtraLight-20" transform="translate(1267.099762 0)"/>
     <use xlink:href="#NotoSerifSC-ExtraLight-50" transform="translate(1292.999756 0)"/>
     <use xlink:href="#NotoSerifSC-ExtraLight-72" transform="translate(1355.799744 0)"/>
     <use xlink:href="#NotoSerifSC-ExtraLight-69" transform="translate(1400.399734 0)"/>
     <use xlink:href="#NotoSerifSC-ExtraLight-6f" transform="translate(1432.899719 0)"/>
     <use xlink:href="#NotoSerifSC-ExtraLight-72" transform="translate(1491.399704 0)"/>
    </g>
   </g>
   <g id="legend_1">
    <g id="patch_5">
     <path d="M 407.971563 67.4 
L 485.12 67.4 
Q 487.12 67.4 487.12 65.4 
L 487.12 35.2 
Q 487.12 33.2 485.12 33.2 
L 407.971563 33.2 
Q 405.971563 33.2 405.971563 35.2 
L 405.971563 65.4 
Q 405.971563 67.4 407.971563 67.4 
z
" style="fill: #ffffff; opacity: 0.8; stroke: #cccccc; stroke-linejoin: miter"/>
    </g>
    <g id="line2d_18">
     <path d="M 409.971563 41.7 
L 419.971563 41.7 
L 429.971563 41.7 
" style="fill: none; stroke: #2171b5; stroke-width: 2; stroke-linecap: square"/>
     <g>
      <use xlink:href="#m8256c165ce" x="419.971563" y="41.7" style="fill: #2171b5; stroke: #2171b5"/>
     </g>
    </g>
    <g id="text_19">
     <!-- Guarded -->
     <g transform="translate(437.971563 45.2) scale(0.1 -0.1)">
      <defs>
       <path id="NotoSerifSC-ExtraLight-47" d="M 2669 -96 
Q 1984 -96 1469 211 
Q 954 518 669 1062 
Q 384 1606 384 2317 
Q 384 3034 675 3574 
Q 966 4115 1488 4422 
Q 2010 4730 2688 4730 
Q 3123 4730 3446 4634 
Q 3770 4538 4064 4352 
L 4090 3366 
L 3827 3366 
L 3654 4410 
L 3930 4301 
L 3930 4070 
Q 3648 4301 3373 4403 
Q 3098 4506 2733 4506 
Q 2176 4506 1753 4240 
Q 1331 3974 1091 3484 
Q 851 2995 851 2310 
Q 851 1638 1081 1148 
Q 1312 659 1731 390 
Q 2150 122 2714 122 
Q 3046 122 3328 202 
Q 3610 282 3904 454 
L 3725 275 
L 3725 646 
Q 3725 1043 3718 1427 
Q 3712 1811 3699 2202 
L 4154 2202 
Q 4147 1850 4140 1475 
Q 4134 1101 4134 646 
L 4134 314 
Q 3763 96 3424 0 
Q 3085 -96 2669 -96 
z
M 2931 2016 
L 2931 2202 
L 4627 2202 
L 4627 2016 
L 3962 1952 
L 3827 1952 
L 2931 2016 
z
" transform="scale(0.015625)"/>
       <path id="NotoSerifSC-ExtraLight-64" d="M 1709 -90 
Q 1306 -90 995 124 
Q 685 339 509 716 
Q 333 1094 333 1581 
Q 333 2125 525 2518 
Q 717 2912 1049 3126 
Q 1382 3341 1798 3341 
Q 2061 3341 2326 3209 
Q 2592 3078 2829 2758 
L 2893 2758 
L 2822 2566 
Q 2573 2842 2349 2963 
Q 2125 3085 1862 3085 
Q 1555 3085 1302 2928 
Q 1050 2771 899 2441 
Q 749 2112 749 1587 
Q 749 1114 889 797 
Q 1030 480 1273 326 
Q 1517 173 1818 173 
Q 2106 173 2339 301 
Q 2573 429 2816 730 
L 2880 531 
L 2822 531 
Q 2605 211 2320 60 
Q 2035 -90 1709 -90 
z
M 2765 -58 
L 2752 589 
L 2752 608 
L 2752 2688 
L 2758 2746 
L 2758 4749 
L 2163 4774 
L 2163 4947 
L 3059 5120 
L 3155 5062 
L 3136 4102 
L 3136 218 
L 3782 173 
L 3782 0 
L 2765 -58 
z
" transform="scale(0.015625)"/>
       <path id="NotoSerifSC-ExtraLight-65" d="M 1907 -90 
Q 1453 -90 1094 96 
Q 736 282 534 662 
Q 333 1043 333 1613 
Q 333 2138 541 2525 
Q 749 2912 1094 3126 
Q 1440 3341 1850 3341 
Q 2246 3341 2531 3171 
Q 2816 3002 2969 2710 
Q 3123 2419 3123 2048 
Q 3123 1811 3085 1664 
L 525 1664 
L 525 1856 
L 2477 1856 
Q 2630 1856 2684 1936 
Q 2739 2016 2739 2182 
Q 2739 2586 2505 2864 
Q 2272 3142 1843 3142 
Q 1536 3142 1286 2963 
Q 1037 2784 889 2454 
Q 742 2125 742 1683 
Q 742 1171 902 838 
Q 1062 506 1344 349 
Q 1626 192 1990 192 
Q 2330 192 2589 307 
Q 2848 422 3053 653 
L 3149 563 
Q 2938 262 2630 86 
Q 2323 -90 1907 -90 
z
" transform="scale(0.015625)"/>
      </defs>
      <use xlink:href="#NotoSerifSC-ExtraLight-47"/>
      <use xlink:href="#NotoSerifSC-ExtraLight-75" transform="translate(73.399994 0)"/>
      <use xlink:href="#NotoSerifSC-ExtraLight-61" transform="translate(137.699982 0)"/>
      <use xlink:href="#NotoSerifSC-ExtraLight-72" transform="translate(192.299973 0)"/>
      <use xlink:href="#NotoSerifSC-ExtraLight-64" transform="translate(236.899963 0)"/>
      <use xlink:href="#NotoSerifSC-ExtraLight-65" transform="translate(298.59996 0)"/>
      <use xlink:href="#NotoSerifSC-ExtraLight-64" transform="translate(352.199951 0)"/>
     </g>
    </g>
    <g id="line2d_19">
     <path d="M 409.971563 57.3 
L 419.971563 57.3 
L 429.971563 57.3 
" style="fill: none; stroke-dasharray: 7.4,3.2; stroke-dashoffset: 0; stroke: #cb181d; stroke-width: 2"/>
     <g>
      <use xlink:href="#m14d1329045" x="419.971563" y="57.3" style="fill: #cb181d; stroke: #cb181d; stroke-linejoin: miter"/>
     </g>
    </g>
    <g id="text_20">
     <!-- No-guard -->
     <g transform="translate(437.971563 60.8) scale(0.1 -0.1)">
      <defs>
       <path id="NotoSerifSC-ExtraLight-4e" d="M 301 0 
L 301 186 
L 979 256 
L 1101 256 
L 1907 186 
L 1907 0 
L 301 0 
z
M 909 0 
L 909 4486 
L 1133 4486 
L 1139 2195 
L 1139 0 
L 909 0 
z
M 3181 4442 
L 3181 4627 
L 4781 4627 
L 4781 4442 
L 4109 4378 
L 3994 4378 
L 3181 4442 
z
M 3962 -51 
L 1082 4205 
L 1069 4211 
L 941 4403 
L 275 4442 
L 275 4627 
L 1286 4627 
L 4051 512 
L 3942 474 
L 3936 2387 
L 3936 4627 
L 4160 4627 
L 4160 -51 
L 3962 -51 
z
" transform="scale(0.015625)"/>
       <path id="NotoSerifSC-ExtraLight-2d" d="M 275 1530 
L 275 1818 
L 1875 1818 
L 1875 1530 
L 275 1530 
z
" transform="scale(0.015625)"/>
      </defs>
      <use xlink:href="#NotoSerifSC-ExtraLight-4e"/>
      <use xlink:href="#NotoSerifSC-ExtraLight-6f" transform="translate(78.799988 0)"/>
      <use xlink:href="#NotoSerifSC-ExtraLight-2d" transform="translate(137.299973 0)"/>
      <use xlink:href="#NotoSerifSC-ExtraLight-67" transform="translate(170.899963 0)"/>
      <use xlink:href="#NotoSerifSC-ExtraLight-75" transform="translate(226.299957 0)"/>
      <use xlink:href="#NotoSerifSC-ExtraLight-61" transform="translate(290.599945 0)"/>
      <use xlink:href="#NotoSerifSC-ExtraLight-72" transform="translate(345.199936 0)"/>
      <use xlink:href="#NotoSerifSC-ExtraLight-64" transform="translate(389.799927 0)"/>
     </g>
    </g>
   </g>
  </g>
 </g>
 <defs>
  <clipPath id="p54193a3914">
   <rect x="51.09125" y="28.2" width="441.02875" height="212.59"/>
  </clipPath>
 </defs>
</svg>
