<?xml version="1.0" encoding="utf-8" standalone="no"?>
<!DOCTYPE svg PUBLIC "-//W3C//DTD SVG 1.1//EN"
  "http://www.w3.org/Graphics/SVG/1.1/DTD/svg11.dtd">
<svg xmlns:xlink="http://www.w3.org/1999/xlink" width="252pt" height="172.8pt" viewBox="0 0 252 172.8" xmlns="http://www.w3.org/2000/svg" version="1.1">
 <metadata>
  <rdf:RDF xmlns:dc="http://purl.org/dc/elements/1.1/" xmlns:cc="http://creativecommons.org/ns#" xmlns:rdf="http://www.w3.org/1999/02/22-rdf-syntax-ns#">
   <cc:Work>
    <dc:type rdf:resource="http://purl.org/dc/dcmitype/StillImage"/>
    <dc:date>2026-06-05T15:22:27.982929</dc:date>
    <dc:format>image/svg+xml</dc:format>
    <dc:creator>
     <cc:Agent>
      <dc:title>Matplotlib v3.10.8, https://matplotlib.org/</dc:title>
     </cc:Agent>
    </dc:creator>
   </cc:Work>
  </rdf:RDF>
 </metadata>
 <defs>
  <style type="text/css">*{stroke-linejoin: round; stroke-linecap: butt}</style>
 </defs>
 <g id="figure_1">
  <g id="patch_1">
   <path d="M 0 172.8 
L 252 172.8 
L 252 0 
L 0 0 
z
" style="fill: #ffffff"/>
  </g>
  <g id="axes_1">
   <g id="patch_2">
    <path d="M 34.88 139 
L 243.36 139 
L 243.36 9.442935 
L 34.88 9.442935 
z
" style="fill: #ffffff"/>
   </g>
   <g id="patch_3">
    <path d="M 44.356364 139 
L 58.470097 139 
L 58.470097 39.340719 
L 44.356364 39.340719 
z
" clip-path="url(#p5cec5a35b3)" style="fill: #0f4d92; stroke: #ffffff; stroke-width: 0.5; stroke-linejoin: miter"/>
   </g>
   <g id="patch_4">
    <path d="M 84.681315 139 
L 98.795048 139 
L 98.795048 49.562184 
L 84.681315 49.562184 
z
" clip-path="url(#p5cec5a35b3)" style="fill: #0f4d92; stroke: #ffffff; stroke-width: 0.5; stroke-linejoin: miter"/>
   </g>
   <g id="patch_5">
    <path d="M 125.006267 139 
L 139.12 139 
L 139.12 39.340719 
L 125.006267 39.340719 
z
" clip-path="url(#p5cec5a35b3)" style="fill: #0f4d92; stroke: #ffffff; stroke-width: 0.5; stroke-linejoin: miter"/>
   </g>
   <g id="patch_6">
    <path d="M 165.331219 139 
L 179.444952 139 
L 179.444952 44.451452 
L 165.331219 44.451452 
z
" clip-path="url(#p5cec5a35b3)" style="fill: #0f4d92; stroke: #ffffff; stroke-width: 0.5; stroke-linejoin: miter"/>
   </g>
   <g id="patch_7">
    <path d="M 205.65617 139 
L 219.769903 139 
L 219.769903 39.340719 
L 205.65617 39.340719 
z
" clip-path="url(#p5cec5a35b3)" style="fill: #0f4d92; stroke: #ffffff; stroke-width: 0.5; stroke-linejoin: miter"/>
   </g>
   <g id="patch_8">
    <path d="M 58.470097 139 
L 72.58383 139 
L 72.58383 87.892676 
L 58.470097 87.892676 
z
" clip-path="url(#p5cec5a35b3)" style="fill: url(#hbf96dba08f); stroke: #ffffff; stroke-width: 0.5; stroke-linejoin: miter"/>
   </g>
   <g id="patch_9">
    <path d="M 98.795048 139 
L 112.908781 139 
L 112.908781 93.003409 
L 98.795048 93.003409 
z
" clip-path="url(#p5cec5a35b3)" style="fill: url(#hbf96dba08f); stroke: #ffffff; stroke-width: 0.5; stroke-linejoin: miter"/>
   </g>
   <g id="patch_10">
    <path d="M 139.12 139 
L 153.233733 139 
L 153.233733 87.892676 
L 139.12 87.892676 
z
" clip-path="url(#p5cec5a35b3)" style="fill: url(#hbf96dba08f); stroke: #ffffff; stroke-width: 0.5; stroke-linejoin: miter"/>
   </g>
   <g id="patch_11">
    <path d="M 179.444952 139 
L 193.558685 139 
L 193.558685 90.448043 
L 179.444952 90.448043 
z
" clip-path="url(#p5cec5a35b3)" style="fill: url(#hbf96dba08f); stroke: #ffffff; stroke-width: 0.5; stroke-linejoin: miter"/>
   </g>
   <g id="patch_12">
    <path d="M 219.769903 139 
L 233.883636 139 
L 233.883636 87.892676 
L 219.769903 87.892676 
z
" clip-path="url(#p5cec5a35b3)" style="fill: url(#hbf96dba08f); stroke: #ffffff; stroke-width: 0.5; stroke-linejoin: miter"/>
   </g>
   <g id="matplotlib.axis_1">
    <g id="xtick_1">
     <g id="line2d_1">
      <defs>
       <path id="m0dcd811b91" d="M 0 0 
L 0 3.5 
" style="stroke: #000000; stroke-width: 0.8"/>
      </defs>
      <g>
       <use xlink:href="#m0dcd811b91" x="58.470097" y="139" style="stroke: #000000; stroke-width: 0.8"/>
      </g>
     </g>
     <g id="text_1">
      <text style="font-size: 7px; font-family: 'Arial', 'Helvetica', 'DejaVu Sans', sans-serif; text-anchor: middle" x="58.470097" y="151.010469" transform="rotate(-0 58.470097 151.010469)">2</text>
     </g>
    </g>
    <g id="xtick_2">
     <g id="line2d_2">
      <g>
       <use xlink:href="#m0dcd811b91" x="98.795048" y="139" style="stroke: #000000; stroke-width: 0.8"/>
      </g>
     </g>
     <g id="text_2">
      <text style="font-size: 7px; font-family: 'Arial', 'Helvetica', 'DejaVu Sans', sans-serif; text-anchor: middle" x="98.795048" y="151.010469" transform="rotate(-0 98.795048 151.010469)">3</text>
     </g>
    </g>
    <g id="xtick_3">
     <g id="line2d_3">
      <g>
       <use xlink:href="#m0dcd811b91" x="139.12" y="139" style="stroke: #000000; stroke-width: 0.8"/>
      </g>
     </g>
     <g id="text_3">
      <text style="font-size: 7px; font-family: 'Arial', 'Helvetica', 'DejaVu Sans', sans-serif; text-anchor: middle" x="139.12" y="151.010469" transform="rotate(-0 139.12 151.010469)">4</text>
     </g>
    </g>
    <g id="xtick_4">
     <g id="line2d_4">
      <g>
       <use xlink:href="#m0dcd811b91" x="179.444952" y="139" style="stroke: #000000; stroke-width: 0.8"/>
      </g>
     </g>
     <g id="text_4">
      <text style="font-size: 7px; font-family: 'Arial', 'Helvetica', 'DejaVu Sans', sans-serif; text-anchor: middle" x="179.444952" y="151.010469" transform="rotate(-0 179.444952 151.010469)">5</text>
     </g>
    </g>
    <g id="xtick_5">
     <g id="line2d_5">
      <g>
       <use xlink:href="#m0dcd811b91" x="219.769903" y="139" style="stroke: #000000; stroke-width: 0.8"/>
      </g>
     </g>
     <g id="text_5">
      <text style="font-size: 7px; font-family: 'Arial', 'Helvetica', 'DejaVu Sans', sans-serif; text-anchor: middle" x="219.769903" y="151.010469" transform="rotate(-0 219.769903 151.010469)">6</text>
     </g>
    </g>
    <g id="text_6">
     <text style="font-size: 8px; font-family: 'Arial', 'Helvetica', 'DejaVu Sans', sans-serif; text-anchor: middle" x="139.12" y="162.127969" transform="rotate(-0 139.12 162.127969)">Number of devices</text>
    </g>
   </g>
   <g id="matplotlib.axis_2">
    <g id="ytick_1">
     <g id="line2d_6">
      <defs>
       <path id="m1c44757121" d="M 0 0 
L -3.5 0 
" style="stroke: #000000; stroke-width: 0.8"/>
      </defs>
      <g>
       <use xlink:href="#m1c44757121" x="34.88" y="139" style="stroke: #000000; stroke-width: 0.8"/>
      </g>
     </g>
     <g id="text_7">
      <text style="font-size: 7px; font-family: 'Arial', 'Helvetica', 'DejaVu Sans', sans-serif; text-anchor: end" x="27.88" y="141.505234" transform="rotate(-0 27.88 141.505234)">0</text>
     </g>
    </g>
    <g id="ytick_2">
     <g id="line2d_7">
      <g>
       <use xlink:href="#m1c44757121" x="34.88" y="113.446338" style="stroke: #000000; stroke-width: 0.8"/>
      </g>
     </g>
     <g id="text_8">
      <text style="font-size: 7px; font-family: 'Arial', 'Helvetica', 'DejaVu Sans', sans-serif; text-anchor: end" x="27.88" y="115.951573" transform="rotate(-0 27.88 115.951573)">10</text>
     </g>
    </g>
    <g id="ytick_3">
     <g id="line2d_8">
      <g>
       <use xlink:href="#m1c44757121" x="34.88" y="87.892676" style="stroke: #000000; stroke-width: 0.8"/>
      </g>
     </g>
     <g id="text_9">
      <text style="font-size: 7px; font-family: 'Arial', 'Helvetica', 'DejaVu Sans', sans-serif; text-anchor: end" x="27.88" y="90.397911" transform="rotate(-0 27.88 90.397911)">20</text>
     </g>
    </g>
    <g id="ytick_4">
     <g id="line2d_9">
      <g>
       <use xlink:href="#m1c44757121" x="34.88" y="62.339015" style="stroke: #000000; stroke-width: 0.8"/>
      </g>
     </g>
     <g id="text_10">
      <text style="font-size: 7px; font-family: 'Arial', 'Helvetica', 'DejaVu Sans', sans-serif; text-anchor: end" x="27.88" y="64.844249" transform="rotate(-0 27.88 64.844249)">30</text>
     </g>
    </g>
    <g id="ytick_5">
     <g id="line2d_10">
      <g>
       <use xlink:href="#m1c44757121" x="34.88" y="36.785353" style="stroke: #000000; stroke-width: 0.8"/>
      </g>
     </g>
     <g id="text_11">
      <text style="font-size: 7px; font-family: 'Arial', 'Helvetica', 'DejaVu Sans', sans-serif; text-anchor: end" x="27.88" y="39.290587" transform="rotate(-0 27.88 39.290587)">40</text>
     </g>
    </g>
    <g id="ytick_6">
     <g id="line2d_11">
      <g>
       <use xlink:href="#m1c44757121" x="34.88" y="11.231691" style="stroke: #000000; stroke-width: 0.8"/>
      </g>
     </g>
     <g id="text_12">
      <text style="font-size: 7px; font-family: 'Arial', 'Helvetica', 'DejaVu Sans', sans-serif; text-anchor: end" x="27.88" y="13.736926" transform="rotate(-0 27.88 13.736926)">50</text>
     </g>
    </g>
    <g id="text_13">
     <text style="font-size: 8px; font-family: 'Arial', 'Helvetica', 'DejaVu Sans', sans-serif; text-anchor: middle" x="14.504688" y="74.221467" transform="rotate(-90 14.504688 74.221467)">Count</text>
    </g>
   </g>
   <g id="patch_13">
    <path d="M 34.88 139 
L 34.88 9.442935 
" style="fill: none; stroke: #000000; stroke-width: 0.8; stroke-linejoin: miter; stroke-linecap: square"/>
   </g>
   <g id="patch_14">
    <path d="M 34.88 139 
L 243.36 139 
" style="fill: none; stroke: #000000; stroke-width: 0.8; stroke-linejoin: miter; stroke-linecap: square"/>
   </g>
   <g id="text_14">
    <text style="font-size: 6px; font-family: 'Arial', 'Helvetica', 'DejaVu Sans', sans-serif; text-anchor: middle; fill: #0f4d92" x="51.41323" y="38.574109" transform="rotate(-0 51.41323 38.574109)">39</text>
   </g>
   <g id="text_15">
    <text style="font-size: 6px; font-family: 'Arial', 'Helvetica', 'DejaVu Sans', sans-serif; text-anchor: middle; fill: #0f4d92" x="91.738182" y="48.795574" transform="rotate(-0 91.738182 48.795574)">35</text>
   </g>
   <g id="text_16">
    <text style="font-size: 6px; font-family: 'Arial', 'Helvetica', 'DejaVu Sans', sans-serif; text-anchor: middle; fill: #0f4d92" x="132.063133" y="38.574109" transform="rotate(-0 132.063133 38.574109)">39</text>
   </g>
   <g id="text_17">
    <text style="font-size: 6px; font-family: 'Arial', 'Helvetica', 'DejaVu Sans', sans-serif; text-anchor: middle; fill: #0f4d92" x="172.388085" y="43.684842" transform="rotate(-0 172.388085 43.684842)">37</text>
   </g>
   <g id="text_18">
    <text style="font-size: 6px; font-family: 'Arial', 'Helvetica', 'DejaVu Sans', sans-serif; text-anchor: middle; fill: #0f4d92" x="212.713037" y="38.574109" transform="rotate(-0 212.713037 38.574109)">39</text>
   </g>
   <g id="text_19">
    <text style="font-size: 6px; font-family: 'Arial', 'Helvetica', 'DejaVu Sans', sans-serif; text-anchor: middle; fill: #b64342" x="65.526963" y="87.126067" transform="rotate(-0 65.526963 87.126067)">20</text>
   </g>
   <g id="text_20">
    <text style="font-size: 6px; font-family: 'Arial', 'Helvetica', 'DejaVu Sans', sans-serif; text-anchor: middle; fill: #b64342" x="105.851915" y="92.236799" transform="rotate(-0 105.851915 92.236799)">18</text>
   </g>
   <g id="text_21">
    <text style="font-size: 6px; font-family: 'Arial', 'Helvetica', 'DejaVu Sans', sans-serif; text-anchor: middle; fill: #b64342" x="146.176867" y="87.126067" transform="rotate(-0 146.176867 87.126067)">20</text>
   </g>
   <g id="text_22">
    <text style="font-size: 6px; font-family: 'Arial', 'Helvetica', 'DejaVu Sans', sans-serif; text-anchor: middle; fill: #b64342" x="186.501818" y="89.681433" transform="rotate(-0 186.501818 89.681433)">19</text>
   </g>
   <g id="text_23">
    <text style="font-size: 6px; font-family: 'Arial', 'Helvetica', 'DejaVu Sans', sans-serif; text-anchor: middle; fill: #b64342" x="226.82677" y="87.126067" transform="rotate(-0 226.82677 87.126067)">20</text>
   </g>
   <g id="legend_1">
    <g id="patch_15">
     <path d="M 76.434063 16.619606 
L 88.434063 16.619606 
L 88.434063 12.419606 
L 76.434063 12.419606 
z
" style="fill: #0f4d92; stroke: #ffffff; stroke-width: 0.5; stroke-linejoin: miter"/>
    </g>
    <g id="text_24">
     <text style="font-size: 6px; font-family: 'Arial', 'Helvetica', 'DejaVu Sans', sans-serif; text-anchor: start" x="90.834063" y="16.619606" transform="rotate(-0 90.834063 16.619606)">Bytecode size (B)</text>
    </g>
    <g id="patch_16">
     <path d="M 145.050625 16.619606 
L 157.050625 16.619606 
L 157.050625 12.419606 
L 145.050625 12.419606 
z
" style="fill: url(#hbf96dba08f); stroke: #ffffff; stroke-width: 0.5; stroke-linejoin: miter"/>
    </g>
    <g id="text_25">
     <text style="font-size: 6px; font-family: 'Arial', 'Helvetica', 'DejaVu Sans', sans-serif; text-anchor: start" x="159.450625" y="16.619606" transform="rotate(-0 159.450625 16.619606)">Execution steps</text>
    </g>
   </g>
  </g>
 </g>
 <defs>
  <clipPath id="p5cec5a35b3">
   <rect x="34.88" y="9.442935" width="208.48" height="129.557065"/>
  </clipPath>
 </defs>
 <defs>
  <pattern id="hbf96dba08f" patternUnits="userSpaceOnUse" x="0" y="0" width="72" height="72">
   <rect x="0" y="0" width="73" height="73" fill="#b64342"/>
   <path d="M -36 36 
L 36 -36 
M -32 40 
L 40 -32 
M -28 44 
L 44 -28 
M -24 48 
L 48 -24 
M -20 52 
L 52 -20 
M -16 56 
L 56 -16 
M -12 60 
L 60 -12 
M -8 64 
L 64 -8 
M -4 68 
L 68 -4 
M 0 72 
L 72 0 
M 4 76 
L 76 4 
M 8 80 
L 80 8 
M 12 84 
L 84 12 
M 16 88 
L 88 16 
M 20 92 
L 92 20 
M 24 96 
L 96 24 
M 28 100 
L 100 28 
M 32 104 
L 104 32 
M 36 108 
L 108 36 
" style="fill: #ffffff; stroke: #ffffff; stroke-width: 0.6; stroke-linecap: butt; stroke-linejoin: miter"/>
  </pattern>
 </defs>
</svg>
